<svg width="714" height="372" viewBox="0 0 714 372" fill="none" xmlns="http://www.w3.org/2000/svg">
<g id="Contact">
<g id="Lines">
<path id="Line4" opacity="0.1" d="M357 372C554.166 372 714 369.433 714 366.265C714 363.098 554.166 360.531 357 360.531C159.834 360.531 0 363.098 0 366.265C0 369.433 159.834 372 357 372Z" fill="#6C63FF"/>
<path id="Line3" opacity="0.1" d="M357 324.913C554.166 324.913 714 322.345 714 319.178C714 316.011 554.166 313.443 357 313.443C159.834 313.443 0 316.011 0 319.178C0 322.345 159.834 324.913 357 324.913Z" fill="#6C63FF"/>
<path id="Line2" opacity="0.1" d="M357 275.773C554.166 275.773 714 273.206 714 270.039C714 266.872 554.166 264.304 357 264.304C159.834 264.304 0 266.872 0 270.039C0 273.206 159.834 275.773 357 275.773Z" fill="#6C63FF"/>
<path id="Line1" opacity="0.1" d="M357 226.641C554.166 226.641 714 224.073 714 220.906C714 217.739 554.166 215.172 357 215.172C159.834 215.172 0 217.739 0 220.906C0 224.073 159.834 226.641 357 226.641Z" fill="#6C63FF"/>
</g>
<g id="Clouds">
<path id="Vector" opacity="0.1" d="M526.894 71.4369C524.568 71.0005 522.164 71.2619 519.989 72.1877C518.683 72.7659 517.269 73.0648 515.839 73.0648C514.409 73.0648 512.995 72.7659 511.689 72.1877C510.144 71.5138 508.47 71.1816 506.782 71.214C505.095 71.2464 503.435 71.6427 501.917 72.3754C501.052 72.8319 500.089 73.0718 499.109 73.0744C495.149 73.0744 491.859 69.1133 491.175 63.89C491.954 63.3127 492.617 62.5947 493.129 61.7735C495.448 58.0582 499.038 55.6699 503.077 55.6699C507.116 55.6699 510.66 58.0259 512.979 61.7023C513.67 62.813 514.638 63.7271 515.79 64.3555C516.942 64.9839 518.238 65.3052 519.552 65.288H519.656C522.842 65.2557 525.572 67.767 526.894 71.4369Z" fill="#6C63FF"/>
<path id="Vector_2" opacity="0.1" d="M538.953 55.0291L532.555 59.055L536.464 52.0388C535.363 51.1683 534.001 50.6876 532.595 50.6731H532.49C532.054 50.679 531.618 50.6465 531.187 50.576L528.985 51.9417L529.917 50.2589C528.378 49.7295 527.048 48.7277 526.119 47.3981L522.21 49.8447L524.66 45.4175C522.393 42.712 519.331 41.055 515.969 41.055C511.93 41.055 508.341 43.4369 506.015 47.1521C505.329 48.263 504.36 49.1739 503.206 49.7923C502.051 50.4107 500.753 50.7146 499.442 50.6731H499.227C494.771 50.6731 491.162 55.6893 491.162 61.877C491.162 68.0647 494.771 73.0874 499.227 73.0874C500.205 73.0809 501.168 72.8412 502.035 72.3883C503.552 71.6538 505.212 71.2559 506.899 71.2224C508.586 71.1888 510.261 71.5205 511.806 72.1942C513.111 72.7764 514.526 73.0774 515.956 73.0774C517.387 73.0774 518.801 72.7764 520.106 72.1942C521.639 71.5356 523.297 71.2115 524.967 71.2438C526.637 71.2762 528.281 71.6643 529.787 72.3819C530.643 72.8273 531.595 73.0626 532.562 73.068C537.018 73.068 540.627 68.0453 540.627 61.8576C540.654 59.478 540.078 57.1298 538.953 55.0291V55.0291Z" fill="#6C63FF"/>
<path id="Vector_3" opacity="0.1" d="M254.89 67.9353C253.26 67.6293 251.575 67.8118 250.05 68.4596C249.137 68.865 248.148 69.0745 247.148 69.0745C246.147 69.0745 245.158 68.865 244.245 68.4596C243.165 67.988 241.993 67.7559 240.813 67.7793C239.633 67.8028 238.472 68.0813 237.411 68.5955C236.808 68.9083 236.138 69.0747 235.457 69.0809C232.688 69.0809 230.382 66.3107 229.9 62.6537C230.453 62.2513 230.924 61.7483 231.288 61.1715C232.91 58.5825 235.425 56.8997 238.252 56.8997C241.079 56.8997 243.561 58.5502 245.183 61.1198C245.668 61.8976 246.347 62.5376 247.154 62.9777C247.961 63.4178 248.869 63.6429 249.789 63.6311H249.861C252.05 63.6181 253.959 65.3787 254.89 67.9353Z" fill="#6C63FF"/>
<path id="Vector_4" opacity="0.1" d="M263.327 56.4595L258.851 59.2816L261.568 54.3689C260.8 53.7582 259.848 53.4209 258.864 53.411H258.786C258.476 53.4165 258.166 53.3927 257.861 53.3398L256.343 54.2977L256.994 53.1197C255.918 52.7479 254.988 52.0479 254.336 51.1197L251.62 52.8285L253.34 49.7346C252.617 48.808 251.697 48.0526 250.644 47.5231C249.592 46.9936 248.434 46.7033 247.255 46.6731C244.428 46.6731 241.913 48.343 240.291 50.945C239.81 51.7229 239.131 52.3608 238.322 52.7938C237.513 53.2269 236.604 53.4398 235.685 53.411H235.535C232.415 53.411 229.887 56.9191 229.887 61.2557C229.887 65.5922 232.415 69.1003 235.535 69.1003C236.217 69.0951 236.888 68.9263 237.49 68.6084C238.55 68.0971 239.71 67.8207 240.889 67.7983C242.068 67.776 243.237 68.0082 244.317 68.479C245.236 68.8953 246.232 69.1157 247.242 69.1262C248.236 69.1245 249.219 68.9173 250.128 68.5178C251.201 68.0565 252.361 67.8293 253.53 67.8517C254.699 67.874 255.849 68.1453 256.903 68.6472C257.506 68.9611 258.177 69.1255 258.858 69.1262C261.972 69.1262 264.499 65.6116 264.499 61.2815C264.526 59.6015 264.122 57.9423 263.327 56.4595V56.4595Z" fill="#6C63FF"/>
<path id="Vector_5" opacity="0.1" d="M175.627 118.686C177.255 118.381 178.938 118.563 180.461 119.21C181.375 119.616 182.365 119.826 183.366 119.826C184.368 119.826 185.358 119.616 186.272 119.21C187.353 118.739 188.523 118.507 189.703 118.53C190.883 118.552 192.044 118.828 193.106 119.34C193.708 119.658 194.378 119.827 195.06 119.832C197.829 119.832 200.135 117.055 200.611 113.398C200.058 112.997 199.589 112.494 199.229 111.916C197.601 109.327 195.086 107.65 192.265 107.65C189.444 107.65 186.956 109.295 185.327 111.871C184.843 112.647 184.166 113.287 183.36 113.727C182.554 114.167 181.647 114.393 180.728 114.382H180.656C178.461 114.395 176.546 116.149 175.627 118.686Z" fill="#6C63FF"/>
<path id="Vector_6" opacity="0.1" d="M167.184 107.23L171.666 110.052L168.943 105.146C169.713 104.533 170.667 104.193 171.653 104.181H171.725C172.037 104.186 172.348 104.164 172.656 104.116L174.174 105.068L173.523 103.896C174.597 103.524 175.524 102.824 176.174 101.896L178.891 103.605L177.197 100.505C177.92 99.5791 178.841 98.8246 179.893 98.2962C180.945 97.7678 182.103 97.4787 183.282 97.4498C186.103 97.4498 188.624 99.1197 190.246 101.722C190.726 102.499 191.404 103.136 192.212 103.569C193.019 104.002 193.928 104.215 194.845 104.188H195.001C198.115 104.188 200.643 107.702 200.643 112.032C200.643 116.362 198.115 119.877 195.001 119.877C194.32 119.874 193.65 119.707 193.047 119.392C191.986 118.877 190.825 118.599 189.645 118.575C188.465 118.552 187.294 118.784 186.213 119.256C185.298 119.676 184.303 119.896 183.295 119.903C182.298 119.902 181.313 119.695 180.402 119.294C179.331 118.833 178.172 118.606 177.004 118.629C175.836 118.651 174.687 118.922 173.634 119.424C173.031 119.738 172.36 119.902 171.679 119.903C168.559 119.903 166.031 116.395 166.031 112.058C166.001 110.378 166.397 108.717 167.184 107.23V107.23Z" fill="#6C63FF"/>
</g>
<g id="Flower5">
<path id="Vector_7" d="M648.457 366.583C650.157 363.456 648.229 359.618 646.007 356.828C643.786 354.039 641.089 351.139 641.147 347.579C641.225 342.473 646.685 339.456 651.049 336.744C654.285 334.73 657.268 332.34 659.935 329.625C661.056 328.584 661.982 327.355 662.671 325.994C663.57 323.994 663.544 321.722 663.492 319.521C663.305 312.229 662.943 304.945 662.404 297.67" stroke="#3F3D56" stroke-width="4" stroke-miterlimit="10"/>
<path id="Vector_8" d="M670.691 297.282C670.629 295.948 670.23 294.651 669.531 293.511C668.832 292.371 667.855 291.424 666.691 290.757L664.893 294.285L664.945 290.013C664.1 289.763 663.22 289.656 662.339 289.696C660.755 289.769 659.228 290.308 657.951 291.243C656.675 292.179 655.707 293.47 655.169 294.952C654.631 296.435 654.547 298.043 654.929 299.572C655.311 301.102 656.141 302.485 657.313 303.546C658.486 304.607 659.949 305.299 661.518 305.533C663.086 305.768 664.69 305.536 666.125 304.865C667.561 304.195 668.764 303.116 669.582 301.766C670.401 300.416 670.798 298.856 670.724 297.282H670.691Z" fill="#6C63FF"/>
<path id="Vector_9" d="M656.391 351.217C655.55 352.842 654.172 354.131 652.488 354.867C650.804 355.603 648.917 355.741 647.142 355.259C645.368 354.776 643.814 353.702 642.742 352.217C641.67 350.732 641.145 348.925 641.254 347.101C641.363 345.276 642.101 343.544 643.342 342.196C644.584 340.847 646.255 339.964 648.074 339.694C649.894 339.423 651.751 339.783 653.336 340.712C654.92 341.641 656.135 343.083 656.776 344.796L651.766 348.848L657.278 347.553C657.283 348.828 656.979 350.084 656.391 351.217V351.217Z" fill="#6C63FF"/>
<path id="Vector_10" d="M652.431 335.741C650.462 335.835 648.527 335.206 646.996 333.973C645.464 332.739 644.444 330.989 644.129 329.056C643.814 327.123 644.226 325.142 645.288 323.492C646.349 321.842 647.985 320.638 649.883 320.11L649.844 323.392L651.662 319.825C653.787 319.729 655.863 320.474 657.435 321.898C659.007 323.321 659.947 325.307 660.046 327.418C660.096 328.463 659.938 329.507 659.581 330.492C659.224 331.477 658.676 332.382 657.967 333.155C657.258 333.929 656.402 334.556 655.449 335.001C654.495 335.446 653.463 335.699 652.411 335.748L652.431 335.741Z" fill="#6C63FF"/>
<path id="Vector_11" d="M671.896 322.874C670.653 322.937 669.412 322.711 668.272 322.215C667.132 321.719 666.123 320.966 665.326 320.016C664.53 319.066 663.967 317.944 663.682 316.74C663.397 315.536 663.398 314.283 663.685 313.079C663.972 311.876 664.537 310.755 665.335 309.806C666.134 308.858 667.143 308.106 668.285 307.612C669.426 307.118 670.667 306.895 671.91 306.96C673.153 307.025 674.364 307.377 675.447 307.987L674.026 311.871L676.945 309.087C677.723 309.789 678.353 310.636 678.8 311.58C679.247 312.524 679.502 313.547 679.551 314.589C679.59 315.326 679.522 316.065 679.349 316.783C678.94 318.465 677.992 319.968 676.648 321.067C675.303 322.166 673.635 322.8 671.896 322.874V322.874Z" fill="#6C63FF"/>
<path id="Vector_12" opacity="0.1" d="M669.616 299.405C667.766 299.612 665.961 300.181 664.105 300.298C662.248 300.414 660.196 299.968 659.03 298.531C658.485 297.698 657.991 296.833 657.551 295.942C657.043 295.158 656.349 294.509 655.531 294.052C655.012 295.062 654.715 296.171 654.661 297.304C654.607 298.437 654.798 299.568 655.22 300.623C655.641 301.677 656.285 302.629 657.107 303.417C657.929 304.204 658.911 304.807 659.987 305.187C661.063 305.567 662.208 305.714 663.346 305.618C664.484 305.523 665.588 305.187 666.585 304.634C667.582 304.08 668.448 303.322 669.125 302.409C669.803 301.496 670.277 300.449 670.515 299.34C670.215 299.353 669.916 299.372 669.616 299.405Z" fill="black"/>
<path id="Vector_13" opacity="0.1" d="M671.896 322.874C670.514 322.937 669.139 322.644 667.904 322.023C666.67 321.403 665.618 320.476 664.85 319.332C664.082 318.189 663.625 316.867 663.523 315.496C663.421 314.125 663.678 312.752 664.268 311.508C664.905 311.932 665.454 312.475 665.883 313.107C666.359 314.016 666.89 314.896 667.473 315.741C668.717 317.204 670.854 317.683 672.789 317.592C674.723 317.502 676.593 316.945 678.522 316.783C678.789 316.783 679.062 316.738 679.329 316.731C678.932 318.419 677.991 319.932 676.649 321.041C675.308 322.149 673.639 322.793 671.896 322.874Z" fill="black"/>
<path id="Vector_14" opacity="0.1" d="M652.431 335.741C651.06 335.808 649.695 335.523 648.466 334.916C647.238 334.308 646.187 333.396 645.415 332.269C644.643 331.142 644.175 329.837 644.056 328.478C643.937 327.12 644.172 325.754 644.737 324.511C645.394 324.946 645.968 325.494 646.431 326.129C647.082 327.003 647.44 328.013 648.17 328.816C649.525 330.317 651.799 330.841 653.851 330.796C655.903 330.751 657.76 330.265 659.714 330.116C659.23 331.685 658.271 333.067 656.968 334.073C655.664 335.08 654.08 335.662 652.431 335.741Z" fill="black"/>
<path id="Vector_15" opacity="0.1" d="M656.391 351.217C655.435 352.995 653.836 354.346 651.917 355.001C649.998 355.655 647.901 355.562 646.047 354.742C644.194 353.922 642.722 352.435 641.928 350.58C641.134 348.725 641.076 346.64 641.766 344.744C642.428 345.173 643.021 345.699 643.525 346.304C644.294 347.23 644.828 348.246 645.675 349.139C647.317 350.738 649.961 351.392 652.32 351.456C653.68 351.455 655.04 351.375 656.391 351.217V351.217Z" fill="black"/>
</g>
<g id="Flower4">
<path id="Vector_16" d="M544.874 268.201C546.575 265.074 544.646 261.236 542.425 258.447C540.204 255.657 537.506 252.757 537.565 249.197C537.643 244.091 543.102 241.074 547.467 238.362C550.703 236.348 553.686 233.958 556.353 231.243C557.474 230.202 558.4 228.973 559.089 227.612C559.988 225.612 559.962 223.34 559.91 221.139C559.719 213.847 559.356 206.563 558.822 199.288" stroke="#3F3D56" stroke-width="4" stroke-miterlimit="10"/>
<path id="Vector_17" d="M567.109 198.9C567.047 197.566 566.648 196.269 565.949 195.129C565.25 193.989 564.273 193.042 563.109 192.375L561.311 195.903L561.363 191.631C560.508 191.378 559.616 191.27 558.725 191.314C557.14 191.387 555.613 191.926 554.337 192.862C553.06 193.797 552.092 195.088 551.554 196.571C551.016 198.053 550.933 199.661 551.314 201.19C551.696 202.72 552.526 204.103 553.699 205.164C554.871 206.225 556.335 206.917 557.903 207.152C559.471 207.386 561.075 207.154 562.51 206.483C563.946 205.813 565.149 204.734 565.967 203.385C566.786 202.035 567.183 200.474 567.109 198.9V198.9Z" fill="#6C63FF"/>
<path id="Vector_18" d="M552.809 252.835C551.968 254.46 550.59 255.749 548.906 256.485C547.222 257.221 545.335 257.359 543.56 256.877C541.786 256.394 540.232 255.32 539.16 253.835C538.088 252.35 537.563 250.543 537.672 248.719C537.781 246.894 538.518 245.162 539.76 243.814C541.002 242.465 542.673 241.582 544.492 241.312C546.311 241.042 548.169 241.401 549.753 242.33C551.338 243.259 552.552 244.701 553.194 246.414L548.184 250.466L553.695 249.172C553.701 250.446 553.397 251.702 552.809 252.835V252.835Z" fill="#6C63FF"/>
<path id="Vector_19" d="M548.848 237.359C546.88 237.453 544.945 236.824 543.414 235.591C541.882 234.358 540.862 232.607 540.547 230.674C540.232 228.741 540.644 226.76 541.706 225.11C542.767 223.46 544.403 222.256 546.301 221.728L546.262 225.01L548.08 221.443C550.205 221.347 552.281 222.092 553.853 223.516C555.425 224.939 556.364 226.925 556.464 229.036C556.514 230.081 556.356 231.126 555.999 232.11C555.642 233.095 555.094 234 554.385 234.773C553.675 235.547 552.82 236.174 551.866 236.619C550.913 237.064 549.881 237.318 548.829 237.366L548.848 237.359Z" fill="#6C63FF"/>
<path id="Vector_20" d="M568.314 224.492C567.071 224.555 565.83 224.329 564.69 223.833C563.549 223.337 562.541 222.584 561.744 221.634C560.948 220.684 560.384 219.562 560.1 218.358C559.815 217.154 559.816 215.901 560.103 214.697C560.39 213.494 560.955 212.374 561.753 211.425C562.552 210.476 563.561 209.724 564.702 209.23C565.844 208.736 567.085 208.513 568.328 208.578C569.571 208.643 570.782 208.995 571.864 209.605L570.444 213.489L573.363 210.706C574.14 211.407 574.771 212.254 575.218 213.198C575.665 214.142 575.92 215.165 575.969 216.207C576.008 216.944 575.94 217.683 575.767 218.401C575.358 220.083 574.41 221.586 573.066 222.685C571.721 223.784 570.053 224.418 568.314 224.492V224.492Z" fill="#6C63FF"/>
<path id="Vector_21" opacity="0.1" d="M566.034 201.023C564.184 201.23 562.379 201.799 560.523 201.916C558.666 202.032 556.614 201.586 555.448 200.149C554.903 199.316 554.409 198.452 553.969 197.56C553.461 196.776 552.767 196.127 551.949 195.67C551.429 196.68 551.133 197.789 551.079 198.922C551.025 200.055 551.216 201.187 551.637 202.241C552.059 203.295 552.703 204.247 553.525 205.035C554.347 205.822 555.329 206.425 556.405 206.805C557.481 207.185 558.626 207.332 559.764 207.237C560.902 207.141 562.006 206.805 563.003 206.252C563.999 205.698 564.866 204.94 565.543 204.027C566.221 203.114 566.695 202.067 566.933 200.958C566.633 200.971 566.334 200.99 566.034 201.023Z" fill="black"/>
<path id="Vector_22" opacity="0.1" d="M568.314 224.492C566.932 224.555 565.557 224.262 564.322 223.642C563.088 223.021 562.035 222.094 561.268 220.95C560.5 219.807 560.043 218.485 559.941 217.114C559.839 215.743 560.095 214.37 560.685 213.126C561.323 213.55 561.872 214.093 562.301 214.725C562.777 215.634 563.308 216.514 563.891 217.359C565.135 218.822 567.272 219.301 569.206 219.21C571.141 219.12 573.011 218.563 574.939 218.401C575.206 218.401 575.48 218.356 575.747 218.35C575.349 220.037 574.408 221.55 573.067 222.659C571.726 223.767 570.057 224.411 568.314 224.492V224.492Z" fill="black"/>
<path id="Vector_23" opacity="0.1" d="M548.848 237.359C547.478 237.426 546.113 237.142 544.884 236.534C543.656 235.926 542.605 235.014 541.833 233.887C541.061 232.76 540.593 231.455 540.474 230.096C540.355 228.738 540.59 227.372 541.155 226.129C541.812 226.564 542.386 227.112 542.849 227.748C543.5 228.621 543.858 229.631 544.588 230.434C545.943 231.935 548.217 232.46 550.269 232.414C552.321 232.369 554.177 231.883 556.132 231.735C555.648 233.303 554.689 234.685 553.386 235.692C552.082 236.698 550.498 237.281 548.848 237.359V237.359Z" fill="black"/>
<path id="Vector_24" opacity="0.1" d="M552.809 252.835C551.853 254.613 550.254 255.965 548.335 256.619C546.416 257.273 544.319 257.18 542.465 256.36C540.612 255.54 539.14 254.053 538.346 252.198C537.551 250.343 537.494 248.258 538.184 246.362C538.846 246.792 539.439 247.317 539.943 247.922C540.712 248.848 541.213 249.864 542.093 250.757C543.734 252.356 546.379 253.01 548.738 253.074C550.098 253.073 551.458 252.993 552.809 252.835V252.835Z" fill="black"/>
</g>
<g id="Flower3">
<path id="Vector_25" d="M432.771 317.32C434.472 314.188 432.543 310.356 430.328 307.566C428.113 304.777 425.403 301.871 425.462 298.317C425.547 293.21 431.006 290.188 435.364 287.482C438.601 285.466 441.586 283.076 444.257 280.362C445.374 279.318 446.297 278.087 446.986 276.725C447.892 274.731 447.866 272.453 447.807 270.252C447.62 262.964 447.258 255.681 446.719 248.401" stroke="#3F3D56" stroke-width="4" stroke-miterlimit="10"/>
<path id="Vector_26" d="M455.012 248.039C454.949 246.704 454.549 245.406 453.849 244.265C453.149 243.123 452.171 242.175 451.006 241.508L449.208 245.036L449.266 240.764C447.636 240.287 445.895 240.337 444.294 240.907C442.694 241.477 441.318 242.537 440.364 243.935C439.41 245.333 438.928 246.996 438.987 248.684C439.046 250.371 439.643 251.997 440.692 253.326C441.742 254.654 443.189 255.617 444.825 256.076C446.461 256.534 448.201 256.464 449.795 255.876C451.388 255.287 452.752 254.211 453.69 252.803C454.628 251.394 455.091 249.726 455.012 248.039V248.039Z" fill="#6C63FF"/>
<path id="Vector_27" d="M440.706 301.968C439.899 303.526 438.598 304.776 437.004 305.525C435.41 306.274 433.612 306.48 431.888 306.112C430.164 305.743 428.611 304.821 427.468 303.486C426.325 302.152 425.657 300.481 425.566 298.731C425.506 297.628 425.684 296.525 426.087 295.495C426.678 293.993 427.713 292.705 429.055 291.8C430.398 290.894 431.986 290.414 433.608 290.423C435.231 290.433 436.813 290.93 438.145 291.851C439.477 292.771 440.497 294.071 441.071 295.579L436.061 299.631L441.573 298.337C441.579 299.598 441.282 300.843 440.706 301.968V301.968Z" fill="#6C63FF"/>
<path id="Vector_28" d="M436.745 286.498C434.777 286.591 432.844 285.96 431.314 284.726C429.784 283.492 428.765 281.742 428.451 279.81C428.137 277.877 428.55 275.898 429.611 274.248C430.672 272.599 432.307 271.395 434.205 270.867L434.159 274.149L435.976 270.576C438.102 270.477 440.179 271.221 441.752 272.645C443.325 274.068 444.265 276.054 444.364 278.165C444.463 280.277 443.714 282.341 442.282 283.903C440.849 285.466 438.851 286.4 436.726 286.498H436.745Z" fill="#6C63FF"/>
<path id="Vector_29" d="M456.217 273.625C454.974 273.688 453.733 273.464 452.592 272.968C451.451 272.473 450.442 271.72 449.645 270.77C448.847 269.82 448.283 268.699 447.998 267.495C447.712 266.291 447.713 265.037 447.999 263.834C448.286 262.63 448.851 261.509 449.649 260.56C450.447 259.61 451.457 258.859 452.598 258.364C453.739 257.87 454.981 257.646 456.224 257.711C457.467 257.776 458.678 258.127 459.761 258.738L458.348 262.621L461.234 259.786C462.401 260.85 463.225 262.232 463.603 263.76C463.98 265.288 463.894 266.893 463.354 268.373C462.815 269.852 461.847 271.14 460.572 272.073C459.298 273.007 457.773 273.544 456.191 273.618L456.217 273.625Z" fill="#6C63FF"/>
<path id="Vector_30" opacity="0.1" d="M453.931 250.162C452.081 250.362 450.283 250.932 448.419 251.049C446.556 251.165 444.511 250.718 443.351 249.288C442.806 248.454 442.31 247.59 441.866 246.699C441.359 245.914 440.666 245.264 439.846 244.809C439.327 245.819 439.031 246.927 438.978 248.06C438.925 249.192 439.115 250.323 439.537 251.376C439.959 252.43 440.602 253.382 441.424 254.169C442.245 254.955 443.226 255.559 444.302 255.939C445.377 256.319 446.521 256.466 447.658 256.372C448.795 256.277 449.899 255.942 450.896 255.39C451.892 254.838 452.759 254.08 453.437 253.169C454.115 252.257 454.59 251.212 454.83 250.104C454.537 250.11 454.23 250.129 453.931 250.162Z" fill="black"/>
<path id="Vector_31" opacity="0.1" d="M456.217 273.625C454.835 273.69 453.458 273.398 452.223 272.778C450.987 272.158 449.934 271.231 449.166 270.086C448.398 268.942 447.941 267.62 447.84 266.248C447.739 264.876 447.997 263.502 448.589 262.259C449.225 262.686 449.771 263.231 450.198 263.864C450.677 264.771 451.208 265.651 451.787 266.498C453.038 267.955 455.175 268.44 457.11 268.343C459.045 268.246 460.914 267.696 462.843 267.534C463.11 267.534 463.377 267.495 463.65 267.489C463.251 269.175 462.31 270.687 460.969 271.794C459.627 272.901 457.959 273.544 456.217 273.625V273.625Z" fill="black"/>
<path id="Vector_32" opacity="0.1" d="M436.745 286.498C435.377 286.562 434.015 286.276 432.789 285.669C431.563 285.061 430.514 284.151 429.743 283.026C428.971 281.902 428.503 280.599 428.382 279.243C428.261 277.888 428.491 276.524 429.051 275.282C429.712 275.714 430.289 276.262 430.752 276.9C431.277 277.829 431.858 278.726 432.491 279.586C433.84 281.081 436.12 281.612 438.165 281.528C440.211 281.443 442.074 281.003 444.029 280.88C443.542 282.446 442.582 283.826 441.279 284.831C439.976 285.836 438.393 286.418 436.745 286.498Z" fill="black"/>
<path id="Vector_33" opacity="0.1" d="M440.706 301.968C439.899 303.526 438.598 304.776 437.004 305.525C435.41 306.274 433.612 306.48 431.888 306.112C430.164 305.743 428.611 304.821 427.468 303.486C426.325 302.152 425.657 300.481 425.566 298.731C425.506 297.628 425.684 296.525 426.087 295.495C426.748 295.926 427.341 296.452 427.846 297.055C428.608 297.974 429.11 298.997 429.996 299.884C431.631 301.482 434.283 302.142 436.635 302.201C437.995 302.205 439.355 302.127 440.706 301.968V301.968Z" fill="black"/>
</g>
<g id="Flower2">
<path id="Vector_34" d="M300.01 217.405C298.31 214.278 300.238 210.447 302.46 207.657C304.681 204.867 307.378 201.961 307.32 198.408C307.241 193.295 301.782 190.278 297.417 187.573C294.182 185.558 291.199 183.168 288.532 180.453C287.409 179.414 286.483 178.185 285.795 176.822C284.896 174.822 284.923 172.55 284.975 170.35C285.17 163.062 285.533 155.778 286.063 148.498" stroke="#3F3D56" stroke-width="4" stroke-miterlimit="10"/>
<path id="Vector_35" d="M277.776 148.129C277.838 146.795 278.236 145.497 278.935 144.356C279.634 143.215 280.611 142.266 281.776 141.599L283.574 145.126L283.522 140.854C284.378 140.607 285.269 140.5 286.16 140.537C287.744 140.611 289.271 141.149 290.547 142.084C291.824 143.02 292.792 144.31 293.33 145.792C293.869 147.274 293.952 148.882 293.571 150.411C293.19 151.941 292.361 153.324 291.189 154.385C290.017 155.446 288.554 156.139 286.986 156.374C285.418 156.61 283.815 156.378 282.379 155.709C280.944 155.039 279.74 153.962 278.921 152.613C278.101 151.264 277.703 149.703 277.776 148.129V148.129Z" fill="#6C63FF"/>
<path id="Vector_36" d="M292.076 202.058C292.916 203.684 294.294 204.974 295.978 205.71C297.662 206.447 299.55 206.585 301.325 206.103C303.099 205.621 304.653 204.547 305.726 203.061C306.798 201.576 307.324 199.769 307.214 197.944C307.105 196.119 306.367 194.387 305.125 193.039C303.883 191.69 302.212 190.807 300.392 190.537C298.572 190.268 296.714 190.628 295.13 191.558C293.546 192.488 292.332 193.93 291.691 195.644L296.701 199.696L291.19 198.401C291.185 199.673 291.489 200.928 292.076 202.058V202.058Z" fill="#6C63FF"/>
<path id="Vector_37" d="M296.036 186.589C298.005 186.683 299.94 186.053 301.471 184.82C303.002 183.587 304.023 181.837 304.338 179.904C304.653 177.971 304.24 175.99 303.179 174.34C302.118 172.69 300.482 171.486 298.584 170.958L298.623 174.239L296.805 170.667C294.681 170.563 292.602 171.302 291.026 172.721C289.45 174.14 288.506 176.122 288.401 178.233C288.356 179.152 288.472 180.072 288.747 180.951C289.227 182.524 290.186 183.91 291.491 184.919C292.797 185.928 294.384 186.512 296.036 186.589V186.589Z" fill="#6C63FF"/>
<path id="Vector_38" d="M276.571 173.702C277.814 173.765 279.055 173.54 280.195 173.044C281.335 172.548 282.344 171.795 283.141 170.844C283.937 169.894 284.5 168.772 284.785 167.569C285.07 166.365 285.069 165.111 284.782 163.908C284.495 162.704 283.93 161.584 283.132 160.635C282.333 159.686 281.324 158.935 280.182 158.441C279.041 157.947 277.8 157.723 276.557 157.788C275.314 157.853 274.103 158.205 273.02 158.816L274.441 162.699L271.522 159.922C270.744 160.623 270.112 161.47 269.665 162.414C269.218 163.358 268.963 164.381 268.916 165.424C268.877 166.161 268.945 166.9 269.118 167.618C269.527 169.299 270.475 170.802 271.82 171.899C273.164 172.997 274.832 173.63 276.571 173.702Z" fill="#6C63FF"/>
<path id="Vector_39" opacity="0.1" d="M278.857 150.252C280.708 150.453 282.506 151.023 284.362 151.139C286.219 151.256 288.271 150.809 289.437 149.379C289.98 148.545 290.474 147.681 290.916 146.79C291.425 146.004 292.121 145.355 292.942 144.9C293.462 145.91 293.758 147.018 293.812 148.152C293.866 149.285 293.676 150.416 293.254 151.471C292.832 152.525 292.188 153.477 291.366 154.264C290.544 155.052 289.562 155.655 288.486 156.035C287.41 156.415 286.265 156.562 285.127 156.466C283.989 156.371 282.885 156.035 281.889 155.482C280.892 154.928 280.026 154.169 279.348 153.256C278.67 152.343 278.196 151.297 277.958 150.188C278.252 150.194 278.551 150.22 278.857 150.252Z" fill="black"/>
<path id="Vector_40" opacity="0.1" d="M276.571 173.702C277.953 173.765 279.328 173.473 280.563 172.852C281.797 172.231 282.849 171.304 283.617 170.161C284.385 169.017 284.842 167.696 284.944 166.325C285.046 164.954 284.789 163.58 284.199 162.337C283.562 162.763 283.013 163.308 282.584 163.942C282.105 164.849 281.574 165.729 280.994 166.576C279.75 168.032 277.613 168.518 275.678 168.421C273.743 168.324 271.874 167.773 269.945 167.612C269.678 167.612 269.405 167.573 269.138 167.566C269.536 169.254 270.477 170.766 271.818 171.873C273.16 172.98 274.828 173.623 276.571 173.702V173.702Z" fill="black"/>
<path id="Vector_41" opacity="0.1" d="M296.036 186.589C297.405 186.655 298.769 186.37 299.995 185.763C301.222 185.155 302.272 184.246 303.044 183.12C303.815 181.995 304.284 180.692 304.404 179.335C304.524 177.979 304.292 176.614 303.73 175.372C303.07 175.803 302.496 176.352 302.036 176.99C301.511 177.919 300.93 178.816 300.297 179.676C298.942 181.172 296.668 181.702 294.616 181.618C292.564 181.534 290.707 181.094 288.753 180.971C289.237 182.539 290.196 183.919 291.5 184.925C292.803 185.931 294.388 186.512 296.036 186.589V186.589Z" fill="black"/>
<path id="Vector_42" opacity="0.1" d="M292.076 202.058C293.017 203.861 294.616 205.239 296.545 205.91C298.475 206.581 300.59 206.494 302.457 205.668C304.325 204.841 305.804 203.337 306.593 201.463C307.382 199.589 307.42 197.487 306.701 195.586C306.037 196.013 305.444 196.539 304.942 197.146C304.18 198.065 303.639 199.087 302.792 199.974C301.15 201.573 298.505 202.233 296.147 202.291C294.787 202.292 293.427 202.214 292.076 202.058V202.058Z" fill="black"/>
</g>
<g id="Flower1">
<path id="Vector_43" d="M35.3808 270.718C37.0811 267.586 35.1528 263.754 32.9378 260.964C30.7229 258.175 28.0128 255.256 28.0714 251.715C28.1561 246.608 33.6154 243.586 37.9736 240.88C41.2102 238.864 44.1951 236.474 46.8661 233.761C47.9831 232.716 48.9069 231.485 49.5957 230.123C50.5012 228.129 50.4751 225.851 50.4165 223.65C50.2254 216.362 49.8628 209.079 49.3286 201.799" stroke="#3F3D56" stroke-width="4" stroke-miterlimit="10"/>
<path id="Vector_44" d="M57.6217 201.437C57.5588 200.102 57.1588 198.804 56.4587 197.663C55.7586 196.521 54.7807 195.574 53.6152 194.906L51.8172 198.434L51.8758 194.162C50.2452 193.685 48.5042 193.735 46.9041 194.305C45.304 194.875 43.9275 195.935 42.9735 197.333C42.0195 198.731 41.5371 200.394 41.5961 202.082C41.6552 203.769 42.2524 205.395 43.3018 206.724C44.3512 208.052 45.7983 209.015 47.4344 209.474C49.0704 209.932 50.8107 209.862 52.4041 209.274C53.9975 208.685 55.3616 207.609 56.2994 206.201C57.2372 204.792 57.7002 203.124 57.6217 201.437Z" fill="#6C63FF"/>
<path id="Vector_45" d="M43.3156 255.366C42.5089 256.924 41.2078 258.174 39.6138 258.923C38.0198 259.672 36.2217 259.878 34.4978 259.51C32.7739 259.141 31.2203 258.219 30.0774 256.885C28.9346 255.55 28.2662 253.879 28.1757 252.129C28.1157 251.026 28.2934 249.923 28.6968 248.893C29.2874 247.392 30.3223 246.103 31.665 245.198C33.0077 244.292 34.595 243.812 36.2177 243.821C37.8404 243.831 39.4222 244.328 40.7545 245.249C42.0868 246.169 43.1069 247.469 43.6804 248.977L38.6707 253.029L44.182 251.735C44.1884 252.996 43.8913 254.241 43.3156 255.366V255.366Z" fill="#6C63FF"/>
<path id="Vector_46" d="M39.3547 239.896C37.3867 239.989 35.4533 239.358 33.9235 238.124C32.3937 236.89 31.3746 235.14 31.0605 233.208C30.7464 231.275 31.1593 229.296 32.2205 227.646C33.2816 225.997 34.9168 224.793 36.814 224.265L36.7684 227.547L38.586 223.974C39.6383 223.925 40.6899 224.083 41.6809 224.438C42.6719 224.793 43.5829 225.338 44.3617 226.043C45.1406 226.747 45.7721 227.598 46.2203 228.545C46.6684 229.492 46.9244 230.518 46.9736 231.563C47.0227 232.609 46.8642 233.653 46.507 234.638C46.1497 235.623 45.6008 236.528 44.8915 237.301C44.1822 238.075 43.3265 238.703 42.3731 239.148C41.4197 239.593 40.3875 239.848 39.3352 239.896H39.3547Z" fill="#6C63FF"/>
<path id="Vector_47" d="M58.8269 227.023C57.5835 227.086 56.3422 226.862 55.2014 226.366C54.0605 225.871 53.0515 225.119 52.2541 224.169C51.4567 223.218 50.8929 222.097 50.6073 220.893C50.3218 219.689 50.3223 218.435 50.6089 217.232C50.8954 216.028 51.4602 214.907 52.2584 213.958C53.0566 213.008 54.0663 212.257 55.2075 211.762C56.3488 211.268 57.5903 211.044 58.8336 211.109C60.0769 211.174 61.288 211.525 62.3708 212.136L60.9572 216.019L63.8431 213.184C65.0104 214.248 65.8346 215.63 66.212 217.159C66.5894 218.687 66.5031 220.291 65.9638 221.771C65.4245 223.25 64.4565 224.538 63.1817 225.471C61.907 226.405 60.3826 226.942 58.8008 227.016L58.8269 227.023Z" fill="#6C63FF"/>
<path id="Vector_48" opacity="0.1" d="M56.5402 203.56C54.69 203.761 52.892 204.33 51.0288 204.447C49.1657 204.563 47.1201 204.117 45.9605 202.686C45.4151 201.853 44.9191 200.988 44.4751 200.097C43.9687 199.312 43.275 198.662 42.4556 198.207C41.9368 199.217 41.6408 200.325 41.5875 201.458C41.5343 202.59 41.7248 203.721 42.1466 204.774C42.5683 205.828 43.2115 206.78 44.0331 207.567C44.8547 208.353 45.8359 208.957 46.911 209.337C47.9862 209.717 49.1305 209.864 50.2677 209.77C51.4048 209.675 52.5085 209.34 53.5051 208.788C54.5016 208.236 55.3681 207.478 56.0465 206.567C56.7249 205.655 57.1997 204.61 57.4392 203.502C57.146 203.508 56.8398 203.528 56.5402 203.56Z" fill="black"/>
<path id="Vector_49" opacity="0.1" d="M58.8268 227.023C57.4441 227.088 56.0679 226.796 54.8323 226.176C53.5966 225.556 52.5436 224.629 51.7756 223.484C51.0075 222.34 50.5507 221.018 50.4495 219.646C50.3484 218.275 50.6063 216.9 51.1982 215.657C51.834 216.084 52.3804 216.629 52.8073 217.262C53.2865 218.169 53.8172 219.049 54.3969 219.896C55.6477 221.353 57.7845 221.838 59.7193 221.741C61.6542 221.644 63.5239 221.094 65.4522 220.932C65.7193 220.932 65.9864 220.893 66.26 220.887C65.861 222.573 64.9195 224.085 63.5782 225.192C62.2368 226.299 60.5688 226.942 58.8268 227.023Z" fill="black"/>
<path id="Vector_50" opacity="0.1" d="M39.3547 239.896C37.9862 239.96 36.6241 239.674 35.3983 239.067C34.1725 238.459 33.1239 237.549 32.3524 236.424C31.5809 235.3 31.1123 233.997 30.9913 232.642C30.8702 231.286 31.1008 229.922 31.6609 228.68C32.3219 229.112 32.8981 229.66 33.3613 230.298C33.8866 231.227 34.4674 232.124 35.1007 232.984C36.4492 234.479 38.7293 235.01 40.7749 234.926C42.8204 234.841 44.6836 234.401 46.638 234.278C46.1516 235.845 45.1916 237.224 43.8885 238.229C42.5854 239.234 41.0024 239.816 39.3547 239.896Z" fill="black"/>
<path id="Vector_51" opacity="0.1" d="M43.3156 255.366C42.5089 256.924 41.2078 258.174 39.6138 258.923C38.0198 259.672 36.2217 259.878 34.4978 259.51C32.7739 259.141 31.2203 258.219 30.0774 256.885C28.9346 255.55 28.2662 253.879 28.1757 252.129C28.1157 251.026 28.2934 249.923 28.6968 248.893C29.3574 249.324 29.9502 249.85 30.4558 250.453C31.218 251.372 31.7196 252.395 32.6056 253.282C34.2408 254.88 36.8922 255.54 39.244 255.599C40.6047 255.603 41.9644 255.525 43.3156 255.366V255.366Z" fill="black"/>
</g>
<g id="Phone">
<path id="Vector_52" d="M507.963 218.861C543.928 218.861 573.083 189.894 573.083 154.162C573.083 118.43 543.928 89.4628 507.963 89.4628C471.998 89.4628 442.843 118.43 442.843 154.162C442.843 189.894 471.998 218.861 507.963 218.861Z" fill="#3F3D56"/>
<path id="Vector_53" d="M535.917 170.848C533.65 168.595 528.197 165.197 525.494 163.929C522.373 162.44 521.227 162.466 519.018 164.052C517.181 165.346 515.989 166.595 513.878 166.136C511.767 165.676 507.585 162.544 503.539 158.537C499.494 154.531 496.354 150.401 495.904 148.272C495.455 146.142 496.693 144.984 498.008 143.159C499.598 140.964 499.644 139.825 498.132 136.725C496.829 134.039 493.448 128.634 491.162 126.369C488.875 124.104 488.38 124.602 487.129 125.074C485.842 125.611 484.606 126.26 483.435 127.016C481.168 128.524 479.898 129.78 479.005 131.67C478.113 133.56 477.103 137.068 482.295 146.252C486.125 153.279 490.977 159.706 496.693 165.327V165.327C502.37 171.019 508.861 175.847 515.956 179.657C525.194 184.835 528.731 183.806 530.634 182.926C532.536 182.045 533.8 180.796 535.311 178.524C536.073 177.362 536.727 176.134 537.265 174.854C537.695 173.612 538.204 173.107 535.917 170.848Z" fill="#6C63FF"/>
<path id="Vector_54" opacity="0.1" d="M507.963 89.4693C495.075 89.4629 482.476 93.2543 471.757 100.364C461.039 107.473 452.684 117.582 447.749 129.41C442.815 141.238 441.522 154.255 444.034 166.813C446.547 179.372 452.752 190.908 461.865 199.962C470.978 209.016 482.589 215.181 495.229 217.677C507.869 220.173 520.97 218.889 532.876 213.986C544.781 209.083 554.955 200.782 562.111 190.133C569.267 179.484 573.083 166.966 573.076 154.162C573.068 137.007 566.205 120.557 553.995 108.427C541.786 96.2964 525.229 89.4778 507.963 89.4693V89.4693ZM507.963 210.259C496.796 210.259 485.879 206.969 476.594 200.805C467.309 194.641 460.072 185.88 455.799 175.629C451.525 165.379 450.407 154.1 452.586 143.218C454.764 132.336 460.142 122.341 468.038 114.495C475.935 106.65 485.995 101.307 496.948 99.1426C507.9 96.9781 519.253 98.089 529.57 102.335C539.887 106.581 548.705 113.771 554.909 122.996C561.113 132.221 564.425 143.067 564.425 154.162C564.425 161.529 562.964 168.823 560.127 175.629C557.289 182.435 553.131 188.619 547.888 193.828C542.645 199.038 536.42 203.17 529.57 205.989C522.72 208.808 515.378 210.259 507.963 210.259Z" fill="black"/>
</g>
<g id="Email">
<path id="Vector_55" d="M358.355 317.133C394.32 317.133 423.475 288.166 423.475 252.434C423.475 216.701 394.32 187.735 358.355 187.735C322.39 187.735 293.235 216.701 293.235 252.434C293.235 288.166 322.39 317.133 358.355 317.133Z" fill="#3F3D56"/>
<path id="Vector_56" d="M395.391 232.887L375.892 252.595C375.858 252.628 375.831 252.667 375.812 252.711C375.794 252.754 375.784 252.801 375.784 252.848C375.784 252.895 375.794 252.942 375.812 252.985C375.831 253.029 375.858 253.068 375.892 253.1L389.573 267.553C389.9 267.881 390.123 268.297 390.213 268.75C390.303 269.203 390.256 269.672 390.079 270.099C389.901 270.525 389.601 270.89 389.215 271.148C388.83 271.406 388.376 271.544 387.912 271.547C387.287 271.546 386.687 271.299 386.244 270.861L372.635 256.46C372.566 256.392 372.472 256.353 372.374 256.353C372.277 256.353 372.183 256.392 372.114 256.46L368.798 259.786C367.44 261.166 365.819 262.262 364.029 263.01C362.239 263.758 360.316 264.143 358.375 264.142C356.396 264.133 354.439 263.733 352.618 262.963C350.797 262.194 349.149 261.073 347.769 259.663L344.583 256.427C344.514 256.359 344.42 256.321 344.323 256.321C344.225 256.321 344.131 256.359 344.062 256.427L330.486 270.796C330.267 271.014 330.008 271.186 329.722 271.304C329.436 271.421 329.13 271.482 328.821 271.482C328.512 271.482 328.206 271.421 327.92 271.304C327.635 271.186 327.375 271.014 327.157 270.796C326.937 270.58 326.763 270.322 326.644 270.038C326.525 269.754 326.464 269.45 326.464 269.142C326.464 268.835 326.525 268.531 326.644 268.247C326.763 267.963 326.937 267.705 327.157 267.489L340.785 253.068C340.846 252.998 340.879 252.908 340.879 252.816C340.879 252.723 340.846 252.633 340.785 252.563L321.287 232.854C321.237 232.804 321.173 232.77 321.103 232.756C321.033 232.742 320.961 232.75 320.896 232.777C320.83 232.804 320.774 232.849 320.734 232.908C320.695 232.967 320.674 233.036 320.675 233.107V272.544C320.68 274.068 321.292 275.529 322.377 276.607C323.462 277.685 324.932 278.293 326.466 278.298H390.224C391.759 278.293 393.229 277.685 394.314 276.607C395.399 275.529 396.011 274.068 396.016 272.544V233.139C396.019 233.066 396 232.993 395.96 232.931C395.92 232.87 395.861 232.821 395.793 232.794C395.724 232.766 395.649 232.76 395.577 232.777C395.505 232.794 395.44 232.832 395.391 232.887V232.887Z" fill="#6C63FF"/>
<path id="Vector_57" d="M358.355 259.463C359.677 259.476 360.988 259.224 362.21 258.724C363.432 258.224 364.54 257.484 365.469 256.55L393.866 227.832C392.858 227.002 391.592 226.545 390.283 226.537H326.479C325.17 226.541 323.902 226.999 322.896 227.832L351.3 256.55C352.22 257.479 353.319 258.216 354.531 258.716C355.743 259.216 357.043 259.47 358.355 259.463V259.463Z" fill="#6C63FF"/>
<path id="Vector_58" opacity="0.1" d="M357.534 187.741C344.647 187.735 332.047 191.526 321.329 198.636C310.611 205.745 302.256 215.854 297.321 227.682C292.386 239.51 291.093 252.527 293.606 265.085C296.119 277.644 302.324 289.18 311.437 298.233C320.549 307.287 332.16 313.452 344.8 315.949C357.44 318.445 370.542 317.161 382.447 312.258C394.352 307.355 404.526 299.054 411.682 288.405C418.838 277.756 422.654 265.238 422.648 252.434C422.639 235.279 415.776 218.829 403.567 206.699C391.358 194.568 374.801 187.75 357.534 187.741ZM357.534 308.531C346.367 308.531 335.451 305.241 326.166 299.077C316.88 292.913 309.644 284.151 305.37 273.901C301.097 263.651 299.979 252.371 302.157 241.49C304.336 230.608 309.713 220.612 317.61 212.767C325.506 204.922 335.566 199.579 346.519 197.414C357.472 195.25 368.824 196.361 379.141 200.607C389.458 204.853 398.277 212.043 404.481 221.268C410.685 230.493 413.996 241.339 413.996 252.434C413.996 267.312 408.048 281.58 397.459 292.1C386.87 302.621 372.509 308.531 357.534 308.531Z" fill="black"/>
</g>
<g id="Location">
<path id="Vector_59" d="M203.809 268.816C239.774 268.816 268.929 239.849 268.929 204.117C268.929 168.384 239.774 139.417 203.809 139.417C167.844 139.417 138.689 168.384 138.689 204.117C138.689 239.849 167.844 268.816 203.809 268.816Z" fill="#3F3D56"/>
<path id="Vector_60" d="M203.809 173.159L177.849 232.667L180.272 235.074L203.816 224.757L227.359 235.074L229.783 232.667L203.809 173.159Z" fill="#6C63FF"/>
<path id="Vector_61" opacity="0.1" d="M203.809 139.398C190.923 139.392 178.325 143.182 167.607 150.29C156.89 157.399 148.535 167.505 143.599 179.331C138.663 191.158 137.368 204.173 139.878 216.73C142.388 229.288 148.59 240.824 157.7 249.879C166.809 258.934 178.417 265.102 191.055 267.602C203.693 270.102 216.794 268.822 228.699 263.924C240.605 259.026 250.781 250.73 257.941 240.086C265.101 229.441 268.923 216.926 268.923 204.123C268.923 186.962 262.063 170.504 249.853 158.367C237.643 146.23 221.081 139.407 203.809 139.398V139.398ZM203.809 260.188C192.641 260.188 181.723 256.897 172.437 250.731C163.151 244.566 155.914 235.803 151.642 225.551C147.369 215.298 146.253 204.017 148.434 193.135C150.616 182.252 155.996 172.257 163.896 164.413C171.796 156.569 181.859 151.228 192.814 149.067C203.769 146.907 215.122 148.022 225.439 152.273C235.755 156.524 244.571 163.719 250.771 172.948C256.972 182.178 260.278 193.027 260.271 204.123C260.269 219 254.32 233.267 243.732 243.785C233.143 254.304 218.783 260.214 203.809 260.214V260.188Z" fill="black"/>
</g>
<g id="Girl2">
<path id="Vector_62" d="M513.956 285.599C513.366 284.166 512.76 282.738 512.139 281.314C511.627 279.924 510.875 278.634 509.917 277.502C509.553 277.094 509.11 276.764 508.614 276.531C508.069 276.331 507.495 276.217 506.914 276.194C506.028 276.083 505.133 276.059 504.243 276.123C503.898 276.019 503.507 275.884 503.122 275.728C505.05 275.225 506.764 274.12 508.012 272.576C509.26 271.032 509.976 269.131 510.054 267.152C510.054 267.023 510.054 266.887 510.054 266.757C510.059 265.546 509.824 264.346 509.362 263.225C508.901 262.104 508.221 261.084 507.363 260.224C506.504 259.364 505.484 258.68 504.359 258.212C503.235 257.744 502.029 257.5 500.81 257.495C499.094 257.492 497.411 257.97 495.956 258.874C494.035 258.441 492.023 258.668 490.248 259.518C488.473 260.368 487.04 261.79 486.184 263.553C485.105 264.579 484.253 265.816 483.681 267.187C483.109 268.557 482.83 270.031 482.862 271.515C482.862 271.651 482.862 271.793 482.862 271.922C483.031 276.951 486.302 280.984 490.432 281.392C489.991 281.589 489.585 281.858 489.233 282.188C487.969 283.398 487.761 285.32 487.624 287.068L487.527 288.363L485.338 289.139C485.268 289.164 485.206 289.207 485.16 289.264C485.113 289.321 485.083 289.39 485.073 289.462C485.063 289.535 485.073 289.609 485.103 289.677C485.132 289.744 485.18 289.802 485.24 289.845L487.331 291.327C487.331 291.45 487.331 291.573 487.331 291.696C487.331 291.819 487.331 291.974 487.37 292.117C487.013 292.429 486.736 292.822 486.562 293.262C486.359 293.942 486.294 294.655 486.373 295.359L486.452 297.165C486.441 298.524 486.628 299.878 487.005 301.184C487.279 301.987 488.465 303.922 489.318 303.935C488.53 307.495 488.321 315.003 488.321 315.003C488.224 315.1 488.497 315.191 488.973 315.269C489.442 318.841 490.973 328.861 493.689 333.269C494.117 334.706 494.458 336.167 494.712 337.644C494.712 337.644 495.487 347.165 496.51 349.994C497.383 352.401 498.074 358.343 498.263 360.065C498.086 360.11 497.924 360.203 497.797 360.333C497.669 360.463 497.58 360.626 497.539 360.803C497.025 362.343 493.689 364.686 493.689 364.686C492.667 365.194 491.702 365.808 490.81 366.518C489.761 367.456 489.8 368.304 494.458 367.773C503.448 366.744 504.986 363.89 504.986 363.89C504.986 363.89 504.842 363.411 504.627 362.79C504.353 361.823 503.957 360.894 503.448 360.026C503.318 359.903 503.188 360.11 503.031 360.434C502.353 356.304 502.147 352.111 502.419 347.935C502.419 347.935 502.673 343.56 501.39 340.472C501.104 338.856 501.104 337.202 501.39 335.586C501.904 333.528 499.337 323.489 499.337 323.489L497.865 316.097C498.066 316.349 498.206 316.644 498.276 316.958L498.315 317.107L498.354 317.32C498.368 317.396 498.405 317.465 498.458 317.521C499.461 321.663 502.21 333.139 502.21 334.822C502.21 336.88 504.777 342.026 504.777 342.026C504.777 342.026 505.8 350.518 507.598 353.858C508.966 356.401 508.999 360.129 508.933 361.773C508.933 361.773 508.627 363.89 508.113 364.401C507.704 364.907 507.376 365.472 507.142 366.078L507.083 366.201C507.083 366.201 506.315 367.748 506.829 368.006C508.787 368.769 510.905 369.034 512.992 368.777C512.992 368.777 514.021 367.482 514.021 366.977C514 366.669 513.961 366.362 513.904 366.058C513.715 364.841 513.363 362.926 513.357 362.906C513.572 362.078 512.705 359.773 512.705 359.773L512.445 352.57C512.922 347.692 512.308 342.77 510.647 338.155C510.647 338.155 509.344 333.528 509.624 332.239C509.904 330.951 509.109 317.314 509.109 317.314L509.031 317.12C508.962 316.155 508.988 315.186 509.109 314.227C509.363 311.139 508.341 304.706 508.08 304.453C507.868 303.762 507.745 303.046 507.715 302.324C507.774 301.786 507.95 300.214 508.191 298.259C510.724 298.173 513.25 297.957 515.761 297.612C516.003 297.612 516.237 297.519 516.412 297.353C516.515 297.197 516.567 297.014 516.562 296.828C516.862 292.951 515.435 289.184 513.956 285.599ZM508.79 293.761C509.057 291.916 509.344 290.129 509.631 288.803L509.67 288.919C510.163 290.253 510.576 291.614 510.907 292.997C510.223 293.308 509.515 293.563 508.79 293.761Z" fill="url(#paint0_linear)"/>
<path id="Vector_63" d="M488.836 314.595C488.836 314.595 490.373 328.337 493.702 333.676C494.13 335.096 494.472 336.54 494.725 338C494.725 338 495.494 347.411 496.517 350.207C497.539 353.003 498.308 360.641 498.308 360.641C498.308 360.641 501.891 364.706 503.175 361.405C502.369 357.043 502.11 352.599 502.406 348.175C502.406 348.175 502.66 343.851 501.383 340.796C501.097 339.199 501.097 337.565 501.383 335.968C501.891 333.929 499.331 324.013 499.331 324.013L497.285 314.091L488.836 314.595Z" fill="#BE6F72"/>
<path id="Vector_64" d="M504.966 363.948C504.966 363.948 503.429 366.744 494.471 367.76C489.82 368.285 489.787 367.45 490.836 366.518C491.725 365.816 492.686 365.208 493.702 364.705C493.702 364.705 497.031 362.421 497.539 360.893C498.048 359.366 499.846 360.641 499.846 360.641C502.406 364.453 502.92 359.618 503.429 360.129C503.939 360.983 504.335 361.899 504.608 362.854C504.823 363.469 504.966 363.948 504.966 363.948Z" fill="#FF6F61"/>
<path id="Vector_65" opacity="0.1" d="M504.966 363.948C504.966 363.948 503.429 366.744 494.471 367.76C489.82 368.285 489.787 367.45 490.836 366.518C491.566 366.977 493.038 367.165 496.002 365.981C500.269 364.246 503.363 363.243 504.608 362.854C504.823 363.469 504.966 363.948 504.966 363.948Z" fill="black"/>
<path id="Vector_66" opacity="0.1" d="M502.406 348.175C502.406 348.175 502.66 343.851 501.383 340.796C501.097 339.199 501.097 337.565 501.383 335.968C501.891 333.929 499.331 324.013 499.331 324.013L497.285 314.091L495.513 314.194L497.539 324.013C497.539 324.013 500.1 333.929 499.592 335.968C499.306 337.565 499.306 339.199 499.592 340.796C500.894 343.851 500.614 348.175 500.614 348.175C500.319 352.599 500.577 357.043 501.383 361.405C501.244 361.819 500.986 362.183 500.64 362.453C501.592 362.88 502.595 362.861 503.175 361.405C502.369 357.043 502.11 352.599 502.406 348.175V348.175Z" fill="black"/>
<path id="Vector_67" d="M500.738 258.764C499.03 258.76 497.355 259.234 495.904 260.13C493.989 259.69 491.98 259.908 490.205 260.749C488.431 261.589 486.995 263.002 486.132 264.757C485.058 265.767 484.208 266.989 483.637 268.344C483.066 269.7 482.786 271.159 482.816 272.628C482.816 278.039 486.484 282.421 491.005 282.421C494.263 282.421 497.116 280.117 498.425 276.783C499.178 276.981 499.953 277.081 500.732 277.081C503.176 277.081 505.521 276.116 507.25 274.398C508.978 272.681 509.95 270.351 509.95 267.922C509.95 265.493 508.978 263.164 507.25 261.446C505.521 259.729 503.176 258.764 500.732 258.764H500.738Z" fill="#3F3D56"/>
<path id="Vector_68" d="M508.295 315.871L509.064 317.903C509.064 317.903 509.832 331.385 509.572 332.66C509.311 333.935 510.601 338.485 510.601 338.485C512.257 343.041 512.869 347.905 512.393 352.725L512.647 359.845C512.647 359.845 513.67 362.641 513.161 363.152C512.653 363.663 508.79 362.699 508.79 362.699C508.79 362.699 509.305 357.359 507.487 354.052C505.67 350.744 504.673 342.35 504.673 342.35C504.673 342.35 502.113 337.262 502.113 335.23C502.113 333.197 498.015 316.66 498.015 316.66L508.295 315.871Z" fill="#BE6F72"/>
<path id="Vector_69" d="M488.321 315.618C488.321 315.618 488.582 306.46 489.624 303.663C490.155 302.357 490.537 300.996 490.764 299.605C490.764 299.605 506.262 302.388 507.546 301.372C507.546 301.372 507.8 304.932 508.06 305.184C508.321 305.437 509.363 311.799 509.083 314.854C508.803 317.909 509.083 317.903 509.083 317.903C509.083 317.903 498.582 319.43 498.328 317.903C498.074 316.375 497.305 316.382 497.305 316.382C497.305 316.382 487.813 316.097 488.321 315.618Z" fill="#3F3D56"/>
<g id="Group" opacity="0.1">
<path id="Vector_70" opacity="0.1" d="M496.771 315.618C496.771 315.618 490.295 315.443 488.341 315.094C488.341 315.424 488.341 315.618 488.341 315.618C487.833 316.123 497.305 316.382 497.305 316.382C497.434 316.394 497.556 316.443 497.657 316.524C497.311 315.618 496.771 315.618 496.771 315.618Z" fill="black"/>
<path id="Vector_71" opacity="0.1" d="M508.041 305.184C507.78 304.932 507.526 301.372 507.526 301.372C507.394 301.454 507.245 301.507 507.09 301.527C507.181 302.602 507.357 304.252 507.526 304.421C507.696 304.589 508.829 311.036 508.549 314.091C508.269 317.146 508.549 317.139 508.549 317.139C508.549 317.139 500.243 318.35 498.23 317.54C498.23 317.65 498.289 317.773 498.308 317.903C498.562 319.43 509.064 317.903 509.064 317.903C509.064 317.903 508.803 317.903 509.064 314.854C509.324 311.806 508.295 305.443 508.041 305.184Z" fill="black"/>
</g>
<path id="Vector_72" d="M499.605 274.79C499.825 275.279 500.16 275.71 500.582 276.045C500.853 276.246 501.168 276.381 501.5 276.44C500.927 276.77 500.302 277.016 499.728 277.346C498.827 277.948 497.957 278.597 497.123 279.288C496.269 279.97 495.225 280.372 494.132 280.44C494.516 279.927 494.756 279.322 494.829 278.687C494.903 278.051 494.806 277.408 494.549 276.822C494.315 276.438 494.16 276.011 494.093 275.566C494.093 274.835 494.745 274.272 495.351 273.884C495.839 273.553 496.341 273.236 496.849 272.919C497.246 272.673 497.846 272.155 498.347 272.175C498.849 272.194 498.907 272.634 498.999 273.087C499.128 273.678 499.331 274.25 499.605 274.79V274.79Z" fill="#BE6F72"/>
<path id="Vector_73" opacity="0.1" d="M499.605 274.79C499.825 275.279 500.16 275.71 500.582 276.045C500.853 276.246 501.168 276.381 501.5 276.44C500.927 276.77 500.302 277.016 499.728 277.346C498.827 277.948 497.957 278.597 497.123 279.288C496.269 279.97 495.225 280.372 494.132 280.44C494.516 279.927 494.756 279.322 494.829 278.687C494.903 278.051 494.806 277.408 494.549 276.822C494.315 276.438 494.16 276.011 494.093 275.566C494.093 274.835 494.745 274.272 495.351 273.884C495.839 273.553 496.341 273.236 496.849 272.919C497.246 272.673 497.846 272.155 498.347 272.175C498.849 272.194 498.907 272.634 498.999 273.087C499.128 273.678 499.331 274.25 499.605 274.79V274.79Z" fill="black"/>
<path id="Vector_74" d="M505.604 289.799C508.857 289.799 511.494 287.18 511.494 283.948C511.494 280.717 508.857 278.097 505.604 278.097C502.352 278.097 499.715 280.717 499.715 283.948C499.715 287.18 502.352 289.799 505.604 289.799Z" fill="#BE6F72"/>
<path id="Vector_75" d="M513.924 366.997C513.924 367.508 512.901 368.777 512.901 368.777C510.821 369.03 508.71 368.768 506.758 368.013C506.243 367.761 507.012 366.233 507.012 366.233L507.07 366.11C507.305 365.511 507.633 364.952 508.041 364.453C508.549 363.948 508.855 361.864 508.855 361.864C510.445 359.275 513.266 362.984 513.266 362.984C513.266 362.984 513.624 364.926 513.813 366.104C513.878 366.524 513.924 366.867 513.924 366.997Z" fill="#FF6F61"/>
<path id="Vector_76" opacity="0.1" d="M513.924 366.997C513.924 367.508 512.901 368.777 512.901 368.777C510.821 369.031 508.71 368.768 506.758 368.013C506.243 367.761 507.012 366.233 507.012 366.233L507.07 366.11C508.815 366.915 510.724 367.305 512.647 367.249L513.813 366.091C513.878 366.524 513.924 366.867 513.924 366.997Z" fill="black"/>
<path id="Vector_77" d="M493.826 277.456C497.007 277.456 499.585 274.895 499.585 271.735C499.585 268.575 497.007 266.013 493.826 266.013C490.646 266.013 488.067 268.575 488.067 271.735C488.067 274.895 490.646 277.456 493.826 277.456Z" fill="#BE6F72"/>
<path id="Vector_78" d="M489.181 283.178C487.917 284.375 487.709 286.272 487.579 288L487.383 290.531C487.313 291.212 487.297 291.898 487.338 292.582C487.338 293.003 487.442 293.43 487.481 293.877C487.52 294.324 487.533 294.887 487.54 295.398V299.139C487.478 299.911 487.622 300.686 487.956 301.385C488.135 301.723 488.435 301.983 488.797 302.112C489.159 302.241 489.556 302.231 489.911 302.084C490.316 301.774 490.601 301.335 490.719 300.841C491.354 299.324 491.792 297.731 492.022 296.104C492.074 295.54 492.08 294.977 492.132 294.414C492.184 293.851 492.282 293.262 492.367 292.693C492.732 290.311 492.894 287.903 493.057 285.502C493.103 284.79 493.748 281.987 492.81 281.676C492.354 281.528 491.409 281.994 490.973 282.149C490.312 282.369 489.703 282.719 489.181 283.178V283.178Z" fill="#BE6F72"/>
<path id="Vector_79" opacity="0.1" d="M489.181 283.178C487.917 284.375 487.709 286.272 487.579 288L487.383 290.531C487.313 291.212 487.297 291.898 487.338 292.582C487.338 293.003 487.442 293.43 487.481 293.877C487.52 294.324 487.533 294.887 487.54 295.398V299.139C487.478 299.911 487.622 300.686 487.956 301.385C488.135 301.723 488.435 301.983 488.797 302.112C489.159 302.241 489.556 302.231 489.911 302.084C490.316 301.774 490.601 301.335 490.719 300.841C491.354 299.324 491.792 297.731 492.022 296.104C492.074 295.54 492.08 294.977 492.132 294.414C492.184 293.851 492.282 293.262 492.367 292.693C492.732 290.311 492.894 287.903 493.057 285.502C493.103 284.79 493.748 281.987 492.81 281.676C492.354 281.528 491.409 281.994 490.973 282.149C490.312 282.369 489.703 282.719 489.181 283.178V283.178Z" fill="black"/>
<path id="Vector_80" d="M501.122 275.424C501.122 275.424 496.771 278.731 494.21 279.495C494.21 279.495 492.693 281.217 492.432 281.631C492.171 282.045 491.65 286.615 491.129 287.638C490.608 288.66 489.338 290.945 491.129 293.23C491.129 293.23 491.637 295.521 491.383 296.285C491.129 297.049 490.198 299.845 491.044 299.974C491.891 300.104 494.458 301.877 496.758 301.372C499.057 300.867 507.644 303.314 507.644 303.314C507.644 303.314 509.064 290.207 510.093 287.89L507.787 287.126C507.787 287.126 501.39 283.314 505.227 277.463C505.22 277.463 501.624 276.699 501.122 275.424Z" fill="#FF6F61"/>
<path id="Vector_81" d="M485.233 290.744L490.523 294.466C490.59 294.515 490.671 294.541 490.754 294.541C490.838 294.541 490.919 294.515 490.986 294.466L492.419 293.398C492.463 293.36 492.498 293.314 492.523 293.261C492.547 293.209 492.559 293.152 492.559 293.094C492.559 293.036 492.547 292.979 492.523 292.926C492.498 292.874 492.463 292.827 492.419 292.79L488.347 289.197C488.295 289.15 488.23 289.117 488.16 289.103C488.089 289.09 488.017 289.095 487.95 289.12L485.338 290.052C485.269 290.075 485.208 290.117 485.162 290.173C485.115 290.228 485.085 290.295 485.074 290.367C485.063 290.438 485.072 290.511 485.101 290.578C485.129 290.644 485.175 290.702 485.233 290.744V290.744Z" fill="#3F3D56"/>
<path id="Vector_82" d="M487.012 301.955C486.638 300.665 486.451 299.329 486.458 297.987L486.38 296.194C486.301 295.498 486.366 294.794 486.569 294.123C486.77 293.663 487.071 293.253 487.45 292.923C487.83 292.593 488.279 292.35 488.764 292.214C489.737 291.945 490.753 291.873 491.754 292C491.889 292 492.022 292.036 492.139 292.104C492.241 292.197 492.313 292.319 492.347 292.453C492.495 292.74 492.582 293.054 492.602 293.376C492.622 293.698 492.576 294.021 492.464 294.324C492.313 294.57 492.109 294.78 491.865 294.939C491.155 295.443 490.328 295.78 489.657 296.33C489.52 296.422 489.416 296.553 489.357 296.706C489.325 296.84 489.325 296.979 489.357 297.113C489.44 297.469 489.554 297.818 489.696 298.155C489.753 298.325 489.854 298.477 489.989 298.596C490.113 298.699 490.276 298.738 490.406 298.835C490.686 299.062 491.272 299.359 491.24 299.715C491.142 301.01 490.36 302.46 490.054 303.741C489.468 306.246 487.39 303.049 487.012 301.955Z" fill="#BE6F72"/>
<g id="Group_2" opacity="0.1">
<path id="Vector_83" opacity="0.1" d="M495.24 301.372H495.096C495.649 301.479 496.218 301.479 496.771 301.372H496.934C496.372 301.291 495.801 301.291 495.24 301.372Z" fill="black"/>
<path id="Vector_84" opacity="0.1" d="M508.679 287.508C507.761 289.56 506.406 300.673 506.165 302.88C507.064 303.113 507.657 303.282 507.657 303.282C507.657 303.282 509.064 290.207 510.093 287.89L508.679 287.508Z" fill="black"/>
</g>
<path id="Vector_85" d="M505.806 284.129C505.854 284.385 505.953 284.628 506.098 284.845C506.242 285.062 506.429 285.248 506.647 285.392C507.191 285.844 507.69 286.347 508.139 286.893C508.782 287.793 509.281 288.786 509.618 289.838C510.106 291.155 510.517 292.499 510.849 293.864C507.591 295.366 503.891 295.294 500.425 296.285C498.933 296.676 497.58 297.471 496.517 298.583C495.986 299.141 495.584 299.807 495.335 300.534C495.087 301.261 494.999 302.032 495.077 302.796C495.082 302.885 495.109 302.972 495.155 303.049C495.212 303.112 495.282 303.161 495.361 303.193C495.441 303.224 495.526 303.237 495.611 303.23C496.477 303.229 497.318 302.942 498.002 302.414C498.678 301.889 499.292 301.29 499.833 300.628C500.168 300.194 500.62 299.862 501.135 299.67C503.018 299.1 505.044 299.133 506.999 299.1C509.922 299.044 512.839 298.814 515.735 298.414C515.84 298.427 515.948 298.415 516.048 298.381C516.149 298.346 516.24 298.289 516.315 298.214C516.391 298.14 516.448 298.049 516.483 297.949C516.517 297.849 516.529 297.743 516.516 297.638C516.803 293.819 515.376 290.091 513.911 286.55C513.324 285.13 512.721 283.717 512.1 282.311C511.588 280.936 510.838 279.661 509.885 278.544C509.522 278.137 509.079 277.811 508.582 277.586C508.021 277.385 507.432 277.276 506.836 277.262C505.888 277.135 504.928 277.118 503.976 277.21C503.824 277.687 503.732 278.181 503.702 278.68C503.754 280.427 504.523 282.065 505.279 283.644C505.376 283.883 505.657 283.896 505.806 284.129Z" fill="#BE6F72"/>
<path id="Vector_86" opacity="0.1" d="M495.377 287.404C494.936 288.154 494.711 289.009 494.725 289.877C494.727 290.22 494.782 290.56 494.888 290.887C495.066 291.344 495.345 291.756 495.705 292.093C496.064 292.429 496.495 292.68 496.966 292.828" stroke="black" stroke-miterlimit="10"/>
<path id="Vector_87" d="M498.693 266.142C498.372 266.141 498.053 266.192 497.748 266.291C496.894 264.997 494.888 264.104 492.536 264.104C489.422 264.104 486.901 265.702 486.901 267.67C486.901 269.638 489.422 271.23 492.536 271.23C493.702 271.242 494.857 270.999 495.917 270.518C496.156 271.008 496.522 271.426 496.979 271.728C497.435 272.03 497.964 272.205 498.511 272.235C499.059 272.265 499.604 272.148 500.091 271.898C500.578 271.648 500.988 271.272 501.279 270.811C501.57 270.349 501.732 269.819 501.747 269.275C501.762 268.73 501.63 268.192 501.365 267.715C501.099 267.239 500.71 266.841 500.238 266.565C499.766 266.288 499.228 266.142 498.679 266.142H498.693Z" fill="#3F3D56"/>
<path id="Vector_88" opacity="0.1" d="M498.947 271.482C498.369 271.482 497.803 271.32 497.314 271.014C496.826 270.709 496.434 270.272 496.184 269.754C495.124 270.236 493.969 270.479 492.803 270.466C489.696 270.466 487.175 268.874 487.175 266.906C487.165 266.788 487.165 266.669 487.175 266.55C486.989 266.895 486.891 267.279 486.888 267.67C486.888 269.612 489.409 271.23 492.523 271.23C493.689 271.242 494.844 270.999 495.904 270.518C496.185 271.096 496.642 271.571 497.21 271.876C497.778 272.181 498.429 272.3 499.069 272.216C499.709 272.132 500.307 271.849 500.776 271.408C501.245 270.968 501.563 270.391 501.683 269.761C501.435 270.273 501.047 270.707 500.563 271.011C500.079 271.316 499.519 271.479 498.947 271.482V271.482Z" fill="black"/>
<path id="Vector_89" opacity="0.1" d="M486.139 266.259C487.001 264.504 488.437 263.091 490.212 262.25C491.986 261.41 493.995 261.192 495.911 261.631C497.251 260.809 498.781 260.342 500.355 260.275C501.929 260.208 503.494 260.543 504.9 261.248C506.307 261.953 507.508 263.005 508.388 264.302C509.269 265.6 509.8 267.1 509.93 268.66C509.93 268.408 509.93 268.155 509.93 267.896C509.927 266.269 509.486 264.671 508.654 263.269C507.822 261.866 506.629 260.71 505.197 259.919C503.765 259.127 502.147 258.729 500.509 258.767C498.871 258.804 497.272 259.274 495.878 260.13C493.963 259.69 491.954 259.908 490.179 260.749C488.405 261.589 486.969 263.002 486.106 264.757C485.032 265.767 484.182 266.989 483.611 268.344C483.04 269.7 482.76 271.159 482.79 272.628C482.79 272.887 482.79 273.139 482.79 273.392C482.918 270.669 484.121 268.106 486.139 266.259Z" fill="black"/>
</g>
<g id="Girl1">
<path id="Vector_90" d="M311.398 275.262C311.406 274.269 311.18 273.288 310.738 272.398C310.295 271.508 309.649 270.733 308.851 270.136C308.841 268.381 308.207 266.686 307.062 265.35C305.916 264.014 304.332 263.123 302.59 262.835C302.321 261.559 301.719 260.376 300.844 259.405C299.969 258.434 298.853 257.708 297.606 257.301V257.301C297.304 257.207 296.995 257.136 296.681 257.087H296.59H296.427H296.297H296.154H295.978H295.58C293.849 257.127 292.188 257.774 290.891 258.914C289.594 260.053 288.744 261.612 288.492 263.314C286.206 262.79 284.115 263.469 283.73 264.906C283.634 265.288 283.657 265.69 283.795 266.058C284.186 267.172 285.457 268.239 287.157 268.764L287.378 268.828L287.711 268.913H287.782C287.419 269.68 287.232 270.518 287.235 271.366C287.23 272.406 287.513 273.428 288.055 274.319C288.596 275.209 289.374 275.934 290.304 276.414L290.154 276.505C289.942 276.696 289.773 276.93 289.659 277.191C289.247 277.913 288.926 278.683 288.701 279.482C288.538 280.168 288.512 280.88 288.31 281.56C287.932 282.809 286.968 283.864 286.857 285.165C286.805 285.748 286.903 286.46 286.486 286.835C286.383 286.923 286.272 287.002 286.154 287.068C285.865 287.271 285.619 287.528 285.431 287.825C285.306 288.095 285.134 288.34 284.922 288.55C284.545 288.828 283.926 288.803 283.743 289.236C283.561 289.67 284.036 290.181 283.926 290.654C283.815 291.126 283.411 291.217 283.118 291.482C282.777 291.847 282.537 292.293 282.421 292.777C281.804 292.894 281.17 292.874 280.562 292.72C279.954 292.565 279.387 292.28 278.903 291.884C279.069 292.301 279.191 292.735 279.268 293.178C278.701 292.748 278.058 292.428 277.372 292.233C276.6 291.884 275.912 291.377 275.353 290.744L276.434 290.595L271.659 283.353L270.245 283.061L271.509 285.476C271.403 285.524 271.31 285.594 271.235 285.683C271.161 285.771 271.108 285.875 271.079 285.987C271.012 286.256 270.996 286.535 271.033 286.809C271.098 287.463 271.207 288.112 271.359 288.751L271.724 290.447C271.756 290.602 271.796 290.764 271.841 290.919C271.365 290.896 270.887 290.948 270.427 291.074C269.48 290.725 268.494 290.492 267.489 290.382C267.274 290.338 267.053 290.338 266.838 290.382C266.595 290.497 266.382 290.667 266.219 290.88C265.397 291.828 264.666 292.851 264.037 293.935C261.431 298.375 258.037 302.252 254.825 306.265C252.61 307.159 250.376 308.006 248.141 308.854L243.333 310.68C242.396 311.102 241.379 311.323 240.35 311.327C239.894 311.327 239.327 311.23 239.047 311.618C238.921 311.82 238.822 312.038 238.754 312.265L238.258 312.317C238.03 311.54 237.637 310.82 237.105 310.207C236.988 310.227 236.877 310.275 236.783 310.348C236.689 310.42 236.614 310.514 236.565 310.621C236.447 310.835 236.376 311.068 236.239 311.269C235.985 311.644 235.535 311.825 235.216 312.142C234.897 312.46 234.695 312.951 234.343 313.275C233.864 313.628 233.3 313.851 232.708 313.922C231.815 314.129 230.954 314.454 230.148 314.887C229.853 315.07 229.535 315.216 229.203 315.32C228.836 315.392 228.46 315.405 228.089 315.359L225.548 315.172C225.32 315.143 225.089 315.154 224.864 315.204C224.609 315.307 224.394 315.488 224.249 315.721C224.103 315.953 224.036 316.225 224.057 316.498C224.089 316.773 224.178 317.037 224.317 317.277C224.456 317.516 224.642 317.724 224.864 317.89C225.304 318.212 225.792 318.464 226.311 318.634C228.509 319.485 230.776 320.152 233.086 320.628V321.139C234.702 321.949 236.487 322.37 238.298 322.369C238.432 322.378 238.566 322.353 238.688 322.298C238.855 322.174 238.971 321.995 239.014 321.793C239.554 320.187 239.896 318.523 240.03 316.835V316.835C240.348 316.814 240.66 316.735 240.949 316.602C241.822 316.362 242.695 316.958 243.6 317.055C244.714 317.178 245.744 316.531 246.799 316.136L247.255 315.987C246.955 316.371 246.599 316.709 246.2 316.99C245.763 317.301 245.275 317.534 244.851 317.858C244.493 318.18 244.109 318.475 243.705 318.738C243.419 318.869 243.125 318.981 242.825 319.074C242.381 319.238 241.959 319.456 241.568 319.722C241.221 319.927 240.929 320.211 240.714 320.55C240.607 320.724 240.545 320.921 240.532 321.124C240.52 321.327 240.558 321.53 240.643 321.715C240.733 321.866 240.854 321.996 240.999 322.097C241.144 322.197 241.309 322.266 241.483 322.298C241.826 322.35 242.176 322.35 242.519 322.298C243.9 322.194 245.275 322.071 246.649 321.948C247.23 321.912 247.808 321.829 248.376 321.702C248.675 321.631 248.975 321.534 249.275 321.45C249.789 321.321 250.315 321.243 250.845 321.217C250.998 321.205 251.153 321.22 251.301 321.262C251.62 321.366 251.848 321.689 252.174 321.754C252.394 321.782 252.619 321.753 252.825 321.67C253.829 321.455 254.853 321.347 255.88 321.346C256.33 321.346 256.858 321.236 257.066 320.822C257.275 320.408 256.897 319.741 256.727 319.191C256.64 318.839 256.592 318.479 256.584 318.117C256.505 317.225 256.248 316.358 255.828 315.566C255.602 315.197 255.412 314.807 255.262 314.401C257.232 313.658 259.116 312.707 260.884 311.566C261.852 310.87 262.937 310.35 264.089 310.032C265.449 309.871 266.828 310.031 268.115 310.498C271.247 311.4 274.328 312.467 277.346 313.696C278.786 314.285 280.219 314.906 281.704 315.353C282.138 315.93 282.661 316.435 283.255 316.848C284.281 317.421 285.433 317.735 286.61 317.761C288.18 317.903 289.756 317.961 291.333 317.935C292.54 317.987 293.743 317.766 294.851 317.288C295.115 317.157 295.362 316.994 295.587 316.803C296.012 316.838 296.441 316.781 296.841 316.635C297.242 316.488 297.605 316.256 297.906 315.955C298.76 315.228 299.375 314.263 299.672 313.184C300.056 311.709 299.763 309.948 300.675 308.77C300.916 308.447 301.235 308.188 301.476 307.864C301.768 307.421 301.914 306.898 301.893 306.369C301.904 306.348 301.917 306.329 301.932 306.311C302.132 305.835 302.264 305.334 302.323 304.822C302.435 304.42 302.576 304.026 302.746 303.644C303.209 302.502 303.614 301.338 303.958 300.155C304.193 299.369 304.38 298.569 304.518 297.761C304.616 297.113 304.675 296.466 304.727 295.819C304.796 294.799 304.995 293.792 305.32 292.822C306.135 290.513 306.596 288.096 306.688 285.65V285.508C307.888 285.371 308.993 284.793 309.786 283.888C310.58 282.982 311.003 281.815 310.974 280.615C310.975 279.894 310.821 279.182 310.525 278.524C311.101 277.533 311.402 276.407 311.398 275.262ZM288.089 303.398C288.16 303.65 288.245 303.896 288.33 304.142C287.945 303.773 287.574 303.392 287.19 303.016C287.339 303.068 287.496 303.113 287.639 303.172C287.79 303.233 287.934 303.308 288.069 303.398H288.089ZM286.245 302.155C283.991 300.214 281.385 298.705 279.079 296.822C280.336 297.437 281.561 298.155 282.773 298.841C284.21 299.657 285.667 300.44 287.144 301.191C286.901 301.567 286.59 301.894 286.225 302.155H286.245ZM287.203 297.262L287.313 297.152C287.313 297.43 287.313 297.683 287.313 297.922L286.707 297.715C286.875 297.574 287.034 297.423 287.183 297.262H287.203ZM267.379 302.505C268.303 301.465 269.107 300.325 269.776 299.107C270.669 300.654 272.121 301.773 273.353 303.074C271.366 302.822 269.372 302.608 267.379 302.505Z" fill="url(#paint1_linear)"/>
<path id="Vector_91" d="M270.584 283.657L272.004 283.942L276.844 291.055L274.714 291.34L270.584 283.657Z" fill="#2F2E41"/>
<path id="Vector_92" d="M236.148 312.511C236.533 313.767 237.008 314.993 237.568 316.181C239.172 315.845 240.75 315.397 242.291 314.841C241.987 314.392 241.659 313.96 241.307 313.547C240.925 313.134 240.473 312.79 239.972 312.531C239.438 312.411 238.884 312.411 238.35 312.531C237.62 312.511 236.884 312.524 236.148 312.511Z" fill="#FBBEBE"/>
<path id="Vector_93" d="M239.978 314.408C239.593 314.236 239.249 313.985 238.971 313.67C238.692 313.355 238.485 312.984 238.363 312.583C238.115 311.776 237.695 311.032 237.131 310.401C237.013 310.417 236.9 310.463 236.805 310.535C236.709 310.606 236.633 310.7 236.584 310.809C236.467 311.016 236.395 311.249 236.265 311.456C236.004 311.825 235.548 312.006 235.223 312.317C234.897 312.628 234.701 313.113 234.35 313.43C233.866 313.784 233.298 314.007 232.701 314.078C231.795 314.281 230.919 314.601 230.096 315.029C229.794 315.208 229.473 315.352 229.138 315.456C228.767 315.511 228.389 315.511 228.017 315.456L225.451 315.275C225.235 315.24 225.015 315.24 224.799 315.275C224.537 315.369 224.315 315.548 224.167 315.783C224.019 316.017 223.955 316.294 223.985 316.57C224.015 316.842 224.104 317.106 224.244 317.342C224.384 317.579 224.574 317.783 224.799 317.942C225.245 318.26 225.737 318.509 226.259 318.68C228.493 319.516 230.794 320.165 233.138 320.621V321.126C234.77 321.922 236.564 322.336 238.382 322.337C238.516 322.345 238.649 322.322 238.773 322.272C238.939 322.148 239.055 321.969 239.099 321.767C239.716 319.979 240.078 318.114 240.174 316.227C240.216 315.747 240.178 315.264 240.063 314.796C239.92 314.337 240.402 314.531 239.959 314.349" fill="#2F2E41"/>
<path id="Vector_94" d="M289.203 304.796C281.594 305.249 274.076 303.036 266.454 302.803C265.508 302.741 264.557 302.799 263.626 302.977C262.657 303.239 261.718 303.601 260.825 304.058C256.74 305.948 252.512 307.515 248.291 309.074L243.438 310.867C242.494 311.291 241.47 311.512 240.434 311.515C239.972 311.515 239.405 311.417 239.131 311.799C238.343 312.964 238.714 314.667 239.236 315.974C239.405 316.395 239.692 316.854 240.148 316.9C240.468 316.878 240.781 316.799 241.073 316.667C241.952 316.434 242.832 317.023 243.744 317.12C244.864 317.236 245.907 316.602 246.968 316.214C248.727 315.566 250.643 315.566 252.493 315.282C255.587 314.77 258.46 313.34 261.144 311.715C262.12 311.024 263.212 310.511 264.369 310.201C265.739 310.04 267.129 310.197 268.428 310.66C271.584 311.545 274.692 312.595 277.737 313.806C279.32 314.49 280.943 315.08 282.597 315.573C286.207 316.511 290.024 316.284 293.496 314.926C294.714 314.447 296.036 313.631 296.102 312.298C296.147 311.553 295.561 310.9 295.177 310.259C294.929 309.851 294.675 309.443 294.408 309.049C293.105 307.172 291.515 304.66 289.203 304.796Z" fill="#2F2E41"/>
<path id="Vector_95" opacity="0.1" d="M289.203 304.796C281.594 305.249 274.076 303.036 266.454 302.803C265.508 302.741 264.557 302.799 263.626 302.977C262.657 303.239 261.718 303.601 260.825 304.058C256.74 305.948 252.512 307.515 248.291 309.074L243.438 310.867C242.494 311.291 241.47 311.512 240.434 311.515C239.972 311.515 239.405 311.417 239.131 311.799C238.343 312.964 238.714 314.667 239.236 315.974C239.405 316.395 239.692 316.854 240.148 316.9C240.468 316.878 240.781 316.799 241.073 316.667C241.952 316.434 242.832 317.023 243.744 317.12C244.864 317.236 245.907 316.602 246.968 316.214C248.727 315.566 250.643 315.566 252.493 315.282C255.587 314.77 258.46 313.34 261.144 311.715C262.12 311.024 263.212 310.511 264.369 310.201C265.739 310.04 267.129 310.197 268.428 310.66C271.584 311.545 274.692 312.595 277.737 313.806C279.32 314.49 280.943 315.08 282.597 315.573C286.207 316.511 290.024 316.284 293.496 314.926C294.714 314.447 296.036 313.631 296.102 312.298C296.147 311.553 295.561 310.9 295.177 310.259C294.929 309.851 294.675 309.443 294.408 309.049C293.105 307.172 291.515 304.66 289.203 304.796Z" fill="black"/>
<path id="Vector_96" d="M250.76 312.861C251.95 313.262 253.151 313.633 254.363 313.974C255.014 312.867 256.317 312.097 256.597 310.828C256.613 310.774 256.613 310.715 256.597 310.66C256.565 310.606 256.517 310.564 256.46 310.537C255.589 310.062 254.624 309.782 253.633 309.715C252.851 309.67 252.493 310.479 252.141 311.049C252.004 311.301 251.079 312.984 250.76 312.861Z" fill="#FBBEBE"/>
<path id="Vector_97" d="M252.428 312.071C252.072 312.011 251.732 311.879 251.43 311.681C251.129 311.484 250.872 311.227 250.675 310.926C250.512 310.634 250.33 310.24 249.991 310.278C249.652 310.317 249.542 310.667 249.47 310.971C249.245 312.118 248.915 313.242 248.486 314.33C248.056 315.424 247.328 316.377 246.382 317.081C245.939 317.385 245.451 317.612 245.014 317.935C244.653 318.253 244.267 318.543 243.861 318.803C243.574 318.931 243.277 319.039 242.975 319.126C242.53 319.293 242.106 319.51 241.711 319.773C241.36 319.974 241.062 320.256 240.845 320.595C240.737 320.765 240.675 320.96 240.663 321.16C240.652 321.36 240.692 321.56 240.78 321.741C240.871 321.89 240.993 322.018 241.138 322.116C241.283 322.214 241.447 322.281 241.62 322.311C241.968 322.362 242.321 322.362 242.669 322.311C244.056 322.214 245.444 322.091 246.832 321.968C247.417 321.93 247.998 321.85 248.571 321.728L249.477 321.482C249.994 321.346 250.525 321.268 251.06 321.249C251.215 321.235 251.372 321.25 251.522 321.295C251.841 321.398 252.069 321.715 252.402 321.78C252.622 321.801 252.845 321.772 253.053 321.696C254.066 321.48 255.099 321.374 256.135 321.379C256.591 321.379 257.125 321.262 257.333 320.861C257.594 320.356 257.164 319.793 256.988 319.249C256.904 318.903 256.856 318.55 256.845 318.194C256.767 317.314 256.507 316.459 256.082 315.683C255.731 315.036 255.249 314.324 255.496 313.638C255.619 313.42 255.699 313.18 255.731 312.932C255.633 311.819 253.066 312.214 252.428 312.071Z" fill="#2F2E41"/>
<path id="Vector_98" d="M277.796 292.667C276.445 292.079 275.363 291.013 274.76 289.676C274.636 289.392 274.532 289.087 274.408 288.803C274.01 287.838 273.39 286.98 272.597 286.298C272.513 286.21 272.412 286.139 272.3 286.092C272.188 286.044 272.067 286.019 271.945 286.019C271.824 286.056 271.715 286.123 271.629 286.216C271.543 286.308 271.484 286.421 271.457 286.544C271.384 286.807 271.366 287.082 271.405 287.353C271.471 287.989 271.58 288.621 271.73 289.243L272.102 290.913C272.151 291.168 272.227 291.418 272.33 291.657C272.489 291.937 272.698 292.185 272.949 292.388C273.287 292.699 273.633 292.997 273.978 293.294C274.178 293.467 274.396 293.617 274.629 293.741C274.993 293.914 275.383 294.027 275.782 294.078C277.337 294.279 278.82 294.847 280.108 295.735C280.108 295.735 280.108 294.615 280.108 294.492C280.092 294.167 279.978 293.853 279.782 293.592C279.186 293.16 278.511 292.846 277.796 292.667V292.667Z" fill="#FBBEBE"/>
<path id="Vector_99" opacity="0.1" d="M277.796 292.667C276.445 292.079 275.363 291.013 274.76 289.676C274.636 289.392 274.532 289.087 274.408 288.803C274.01 287.838 273.39 286.98 272.597 286.298C272.513 286.21 272.412 286.139 272.3 286.092C272.188 286.044 272.067 286.019 271.945 286.019C271.824 286.056 271.715 286.123 271.629 286.216C271.543 286.308 271.484 286.421 271.457 286.544C271.384 286.807 271.366 287.082 271.405 287.353C271.471 287.989 271.58 288.621 271.73 289.243L272.102 290.913C272.151 291.168 272.227 291.418 272.33 291.657C272.489 291.937 272.698 292.185 272.949 292.388C273.287 292.699 273.633 292.997 273.978 293.294C274.178 293.467 274.396 293.617 274.629 293.741C274.993 293.914 275.383 294.027 275.782 294.078C277.337 294.279 278.82 294.847 280.108 295.735C280.108 295.735 280.108 294.615 280.108 294.492C280.092 294.167 279.978 293.853 279.782 293.592C279.186 293.16 278.511 292.846 277.796 292.667V292.667Z" fill="black"/>
<path id="Vector_100" d="M293.287 279.89C294.309 279.89 295.137 279.061 295.137 278.039C295.137 277.016 294.309 276.188 293.287 276.188C292.265 276.188 291.437 277.016 291.437 278.039C291.437 279.061 292.265 279.89 293.287 279.89Z" fill="#2F2E41"/>
<path id="Vector_101" d="M292.141 276.925C291.645 276.807 291.124 276.882 290.681 277.133C290.468 277.321 290.297 277.553 290.18 277.812C289.766 278.52 289.442 279.277 289.216 280.065C289.053 280.712 289.027 281.443 288.818 282.11C288.44 283.34 287.47 284.382 287.359 285.663C287.307 286.239 287.405 286.913 286.981 287.301C286.877 287.39 286.766 287.47 286.649 287.54C286.356 287.735 286.107 287.988 285.919 288.285C285.792 288.549 285.617 288.788 285.405 288.99C285.027 289.269 284.401 289.243 284.219 289.637C284.037 290.032 284.512 290.57 284.401 291.036C284.291 291.502 283.88 291.592 283.587 291.851C283.242 292.213 282.999 292.66 282.883 293.146C282.264 293.264 281.627 293.247 281.015 293.097C280.403 292.946 279.831 292.664 279.34 292.272C279.769 293.569 279.957 294.933 279.893 296.298C279.926 296.516 279.914 296.738 279.858 296.952C279.802 297.165 279.703 297.366 279.568 297.54C281.037 297.649 282.493 297.901 283.913 298.291C284.528 298.495 285.193 298.495 285.809 298.291C286.138 298.116 286.434 297.883 286.681 297.605C287.463 296.816 288.284 295.955 288.473 294.861C288.52 294.243 288.531 293.623 288.506 293.003C288.58 292.235 288.739 291.478 288.981 290.744C289.394 289.222 289.67 287.667 289.808 286.097C289.893 285.126 290.74 284.349 291.183 283.508C292.017 281.871 292.877 280.168 292.935 278.33C292.962 277.735 292.753 276.99 292.141 276.925Z" fill="#2F2E41"/>
<path id="Vector_102" opacity="0.1" d="M292.141 276.925C291.645 276.807 291.124 276.882 290.681 277.133C290.468 277.321 290.297 277.553 290.18 277.812C289.766 278.52 289.442 279.277 289.216 280.065C289.053 280.712 289.027 281.443 288.818 282.11C288.44 283.34 287.47 284.382 287.359 285.663C287.307 286.239 287.405 286.913 286.981 287.301C286.877 287.39 286.766 287.47 286.649 287.54C286.356 287.735 286.107 287.988 285.919 288.285C285.792 288.549 285.617 288.788 285.405 288.99C285.027 289.269 284.401 289.243 284.219 289.637C284.037 290.032 284.512 290.57 284.401 291.036C284.291 291.502 283.88 291.592 283.587 291.851C283.242 292.213 282.999 292.66 282.883 293.146C282.264 293.264 281.627 293.247 281.015 293.097C280.403 292.946 279.831 292.664 279.34 292.272C279.769 293.569 279.957 294.933 279.893 296.298C279.926 296.516 279.914 296.738 279.858 296.952C279.802 297.165 279.703 297.366 279.568 297.54C281.037 297.649 282.493 297.901 283.913 298.291C284.528 298.495 285.193 298.495 285.809 298.291C286.138 298.116 286.434 297.883 286.681 297.605C287.463 296.816 288.284 295.955 288.473 294.861C288.52 294.243 288.531 293.623 288.506 293.003C288.58 292.235 288.739 291.478 288.981 290.744C289.394 289.222 289.67 287.667 289.808 286.097C289.893 285.126 290.74 284.349 291.183 283.508C292.017 281.871 292.877 280.168 292.935 278.33C292.962 277.735 292.753 276.99 292.141 276.925Z" fill="black"/>
<path id="Vector_103" d="M290.408 306.388C288.825 305.638 287.665 304.246 286.382 303.049C283.939 300.764 280.949 299.165 278.375 297.01C276.668 295.592 275.118 293.942 273.274 292.751C271.623 291.711 269.753 291.062 267.809 290.854C267.594 290.805 267.372 290.805 267.157 290.854C266.911 290.958 266.697 291.126 266.538 291.34C265.707 292.271 264.968 293.279 264.33 294.35C261.073 299.851 256.441 304.472 252.604 309.586C252.515 309.692 252.451 309.815 252.415 309.948C252.398 310.147 252.449 310.345 252.558 310.511L253.34 312.026C253.776 312.88 254.48 313.871 255.418 313.702C255.84 313.581 256.218 313.34 256.506 313.01L260.011 309.676L263.685 306.188C265.835 304.149 268.024 302.058 269.431 299.443C270.525 301.333 272.473 302.57 273.802 304.298C274.31 304.945 274.727 305.676 275.183 306.375C275.906 307.489 276.734 308.537 277.554 309.612L281.769 314.951C282.304 315.706 282.965 316.363 283.724 316.893C284.763 317.455 285.922 317.764 287.105 317.793C288.688 317.933 290.278 317.989 291.867 317.961C293.084 318.01 294.297 317.789 295.418 317.314C295.976 317.07 296.453 316.673 296.793 316.17C297.134 315.667 297.323 315.078 297.339 314.472C297.274 313.846 297.067 313.241 296.733 312.706C295.209 310.006 293.242 307.728 290.408 306.388Z" fill="#2F2E41"/>
<path id="Vector_104" d="M294.427 280.744C295.215 280.744 295.854 280.107 295.854 279.32C295.854 278.534 295.215 277.896 294.427 277.896C293.639 277.896 293.001 278.534 293.001 279.32C293.001 280.107 293.639 280.744 294.427 280.744Z" fill="#E8E8F0"/>
<path id="Vector_105" d="M294.115 278.252C294.433 278.888 294.489 279.622 294.271 280.298C294.046 280.962 293.737 281.594 293.352 282.181C293.021 282.786 292.621 283.35 292.16 283.864C294.362 283.968 296.492 283.113 298.427 282.078C299.991 281.243 301.548 280.214 302.382 278.654C302.133 278.713 301.874 278.719 301.623 278.672C301.371 278.625 301.133 278.526 300.922 278.382C300.502 278.095 300.127 277.748 299.808 277.353L298.707 276.123C298.458 275.852 298.239 275.555 298.056 275.236C297.814 274.8 297.712 274.301 297.763 273.806C297.324 274.261 296.834 274.665 296.304 275.01C295.515 275.521 294.649 275.89 293.854 276.395C293.58 276.576 292.955 276.861 293.118 277.223C293.281 277.586 293.893 277.864 294.115 278.252Z" fill="#FBBEBE"/>
<path id="Vector_106" opacity="0.1" d="M294.115 278.252C294.433 278.888 294.489 279.622 294.271 280.298C294.046 280.962 293.737 281.594 293.352 282.181C293.021 282.786 292.621 283.35 292.16 283.864C294.362 283.968 296.492 283.113 298.427 282.078C299.991 281.243 301.548 280.214 302.382 278.654C302.133 278.713 301.874 278.719 301.623 278.672C301.371 278.625 301.133 278.526 300.922 278.382C300.502 278.095 300.127 277.748 299.808 277.353L298.707 276.123C298.458 275.852 298.239 275.555 298.056 275.236C297.814 274.8 297.712 274.301 297.763 273.806C297.324 274.261 296.834 274.665 296.304 275.01C295.515 275.521 294.649 275.89 293.854 276.395C293.58 276.576 292.955 276.861 293.118 277.223C293.281 277.586 293.893 277.864 294.115 278.252Z" fill="black"/>
<path id="Vector_107" d="M294.141 278.466C293.918 278.778 293.798 279.151 293.798 279.534C293.798 279.917 293.918 280.29 294.141 280.602C294.206 280.68 294.44 281.165 294.538 281.172C294.586 281.168 294.633 281.154 294.675 281.132C294.718 281.11 294.755 281.079 294.786 281.042C295.287 280.523 295.752 279.972 296.18 279.392C296.616 278.813 297.243 278.405 297.952 278.239C298.829 278.206 299.692 278.474 300.395 278.997C300.721 279.145 301.009 279.367 301.235 279.644C301.392 279.929 301.486 280.245 301.509 280.57C301.722 282.523 301.804 284.489 301.756 286.453C301.794 287.872 301.7 289.291 301.476 290.693C301.333 291.411 301.124 292.117 301.027 292.848C300.95 293.492 300.92 294.141 300.935 294.79V297.495C300.918 297.992 300.953 298.488 301.04 298.977C301.17 299.566 301.45 300.117 301.639 300.693C301.834 301.354 301.967 302.032 302.036 302.718L302.408 305.515C302.525 306.395 302.616 307.359 302.075 308.104C301.834 308.421 301.515 308.68 301.268 308.997C300.349 310.188 300.616 311.89 300.258 313.346C299.956 314.412 299.333 315.361 298.473 316.065C298.166 316.366 297.797 316.597 297.39 316.742C296.984 316.886 296.551 316.94 296.121 316.9C294.975 316.686 294.29 315.502 293.978 314.382C293.665 313.262 293.554 312.045 292.877 311.1C292.255 310.385 291.52 309.775 290.701 309.295C289.872 308.807 289.263 308.021 289.001 307.1C288.929 306.693 289.001 306.272 288.929 305.858C288.868 305.336 288.667 304.841 288.347 304.423C288.027 304.005 287.601 303.68 287.111 303.482C286.525 303.256 285.808 303.172 285.47 302.641C286.308 302.119 286.92 301.304 287.183 300.356C287.442 299.415 287.582 298.445 287.6 297.469L287.795 294.233C287.887 292.777 287.926 291.34 288.571 290.032C288.857 289.45 289.222 288.9 289.515 288.324C289.913 287.514 290.25 286.677 290.525 285.819C290.994 284.485 291.463 283.152 291.88 281.806C292.043 281.152 292.292 280.523 292.623 279.935C292.975 279.327 293.483 278.595 294.141 278.466Z" fill="#E8E8F0"/>
<path id="Vector_108" d="M286.877 299.592H287.743L287.926 298.298C287.949 298.038 288.011 297.783 288.108 297.54C288.251 297.283 288.419 297.04 288.61 296.816C289.457 295.618 289.398 294.032 289.607 292.576C289.984 290.652 290.624 288.788 291.509 287.036L293.19 283.314C293.343 283.01 293.465 282.691 293.554 282.362C293.625 282 293.66 281.631 293.659 281.262C293.659 280.686 293.841 278.589 293.861 278.026C293.861 277.812 293.385 277.929 293.287 277.741C293.079 277.327 292.792 278.447 292.395 278.693C292.021 278.976 291.75 279.37 291.62 279.819C291.255 280.751 291.033 281.761 290.694 282.686C290.4 283.652 289.859 284.526 289.124 285.223C288.779 285.521 288.382 285.761 288.056 286.084C287.014 287.107 286.909 288.731 286.877 290.194C286.851 291.087 286.681 299.592 286.877 299.592Z" fill="#2F2E41"/>
<path id="Vector_109" d="M299.346 276.919C298.943 277.128 298.594 277.427 298.327 277.792C298.059 278.157 297.879 278.578 297.802 279.023C297.653 279.915 297.39 280.785 297.02 281.612C295.965 283.437 293.274 283.968 292.525 285.942C292.337 286.606 292.236 287.291 292.225 287.981C292.095 289.398 291.626 290.764 291.483 292.175C291.411 293.273 291.437 294.376 291.561 295.469L292.505 306.615C292.686 308.254 292.592 309.912 292.225 311.521C293.194 311.658 294.181 311.496 295.053 311.055C295.932 310.654 296.74 310.104 297.593 309.638C299.053 308.835 300.668 308.272 301.952 307.204C302.182 307.022 302.38 306.803 302.538 306.557C302.734 306.089 302.866 305.597 302.929 305.094C303.04 304.699 303.181 304.314 303.352 303.942C303.822 302.817 304.231 301.667 304.577 300.498C304.812 299.725 304.999 298.938 305.137 298.142C305.242 297.495 305.3 296.848 305.352 296.201C305.42 295.197 305.622 294.207 305.952 293.256C306.769 290.983 307.233 288.599 307.326 286.188C307.351 285.841 307.327 285.492 307.255 285.152C307.111 284.736 306.919 284.338 306.681 283.968C306.29 283.236 306.03 282.434 305.691 281.689C304.767 280.05 303.443 278.668 301.841 277.67C301.085 277.159 300.199 276.615 299.346 276.919Z" fill="#2F2E41"/>
<path id="Vector_110" d="M279.665 295.107C278.996 294.758 278.391 294.301 277.874 293.754C277.639 293.482 277.444 293.178 277.222 292.906C276.618 292.26 275.833 291.809 274.968 291.612C274.113 291.425 273.238 291.34 272.362 291.359C271.775 291.32 271.185 291.39 270.623 291.566C270.343 291.66 270.091 291.821 269.889 292.036C269.688 292.25 269.544 292.512 269.47 292.796C269.446 293.148 269.515 293.5 269.669 293.818C269.823 294.135 270.057 294.408 270.349 294.608C270.858 295.023 271.459 295.312 272.102 295.45C272.625 295.542 273.154 295.605 273.685 295.638C276.799 295.961 279.58 297.644 282.31 299.178C284.707 300.533 287.153 301.793 289.646 302.958C289.742 302.218 289.784 301.471 289.769 300.725C289.769 300.168 289.724 299.314 289.196 298.984C288.445 298.672 287.664 298.44 286.864 298.291C285.256 297.77 283.687 297.138 282.167 296.401C281.307 296.032 280.48 295.579 279.665 295.107Z" fill="#FBBEBE"/>
<path id="Vector_111" d="M293.287 277.618C296.353 277.618 298.838 275.135 298.838 272.071C298.838 269.008 296.353 266.524 293.287 266.524C290.222 266.524 287.737 269.008 287.737 272.071C287.737 275.135 290.222 277.618 293.287 277.618Z" fill="#FBBEBE"/>
<path id="Vector_112" d="M300.929 283.204C300.486 283.822 300.124 284.494 299.854 285.204C299.203 286.602 298.095 287.793 297.554 289.275C297.014 290.757 297.007 292.66 295.893 293.871C295.67 294.056 295.501 294.297 295.405 294.57C295.4 294.739 295.383 294.908 295.352 295.074C295.19 295.515 294.466 295.534 294.33 295.987C294.29 296.117 294.33 296.259 294.264 296.388C294.154 296.68 293.763 296.725 293.509 296.9C292.968 297.262 293.079 298.104 292.694 298.628C292.527 298.823 292.31 298.971 292.066 299.056C291.823 299.141 291.561 299.161 291.307 299.113C290.801 299.011 290.315 298.83 289.867 298.576C289.706 298.488 289.529 298.433 289.346 298.414C289.13 298.422 288.921 298.494 288.747 298.621C288.255 298.981 287.861 299.456 287.6 300.004C287.338 300.551 287.218 301.155 287.248 301.761C287.323 302.973 287.614 304.163 288.108 305.275C288.163 305.468 288.259 305.646 288.388 305.799C288.582 305.951 288.817 306.041 289.063 306.06C289.309 306.078 289.555 306.024 289.769 305.903C290.194 305.652 290.647 305.45 291.118 305.301C291.978 305.146 292.818 305.735 293.691 305.683C294.327 305.59 294.925 305.328 295.424 304.926C296.301 304.406 297.088 303.75 297.756 302.984C298.134 302.485 298.408 301.922 298.746 301.392C299.178 300.747 299.645 300.126 300.147 299.534L303.352 295.65C303.671 295.282 303.958 294.888 304.212 294.473C304.497 293.906 304.716 293.309 304.864 292.693C305.206 291.667 305.425 290.604 305.515 289.528C305.535 288.637 305.456 287.747 305.281 286.874C305.183 286.004 304.964 285.152 304.629 284.343C303.932 282.88 302.238 281.689 300.929 283.204Z" fill="#2F2E41"/>
<path id="Vector_113" d="M312.082 275.968C312.087 274.984 311.856 274.014 311.41 273.136C310.964 272.259 310.314 271.499 309.515 270.919C309.489 269.172 308.84 267.491 307.685 266.175C306.529 264.858 304.941 263.991 303.202 263.728C302.868 262.072 301.956 260.586 300.627 259.533C299.297 258.481 297.636 257.928 295.936 257.974C294.237 258.019 292.608 258.66 291.338 259.783C290.068 260.906 289.238 262.438 288.994 264.11C286.688 263.592 284.577 264.265 284.193 265.676C283.809 267.087 285.437 268.913 287.867 269.56C288.634 269.773 289.432 269.852 290.225 269.793C290.791 270.621 291.525 271.323 292.38 271.852C293.235 272.382 294.192 272.727 295.19 272.867C295.485 274.202 296.149 275.428 297.106 276.409C298.063 277.389 299.276 278.086 300.61 278.421C300.981 279.305 301.554 280.092 302.284 280.718C302.284 280.893 302.284 281.074 302.284 281.256C302.284 281.869 302.405 282.475 302.641 283.042C302.877 283.608 303.223 284.122 303.66 284.556C304.096 284.989 304.614 285.333 305.183 285.567C305.753 285.802 306.364 285.922 306.981 285.922C307.598 285.922 308.209 285.802 308.778 285.567C309.348 285.333 309.866 284.989 310.302 284.556C310.738 284.122 311.084 283.608 311.32 283.042C311.556 282.475 311.678 281.869 311.678 281.256C311.678 280.543 311.525 279.839 311.228 279.191C311.802 278.213 312.097 277.099 312.082 275.968V275.968Z" fill="#F86D70"/>
<path id="Vector_114" opacity="0.1" d="M285.756 265.974C286.141 264.563 288.251 263.89 290.558 264.408C290.831 262.709 291.701 261.162 293.012 260.039C294.324 258.916 295.992 258.29 297.724 258.272H298.199C297.536 258.071 296.847 257.969 296.154 257.968C294.422 257.986 292.753 258.612 291.442 259.735C290.131 260.857 289.261 262.405 288.988 264.104C286.681 263.586 284.571 264.259 284.186 265.67C283.802 267.081 285.431 268.906 287.861 269.553C288.316 269.679 288.783 269.759 289.255 269.793C286.929 269.1 285.372 267.417 285.756 265.974Z" fill="black"/>
<path id="Vector_115" opacity="0.1" d="M303.821 281.527C303.812 281.351 303.812 281.174 303.821 280.997C303.088 280.374 302.514 279.586 302.147 278.699C300.812 278.366 299.597 277.669 298.639 276.687C297.682 275.704 297.019 274.476 296.727 273.139C295.728 273.002 294.77 272.658 293.914 272.13C293.057 271.601 292.322 270.9 291.756 270.071C291.294 270.109 290.828 270.096 290.369 270.032C290.939 270.795 291.656 271.437 292.478 271.923C293.3 272.408 294.21 272.727 295.157 272.861C295.453 274.195 296.116 275.421 297.073 276.402C298.031 277.383 299.244 278.08 300.577 278.414C300.948 279.299 301.522 280.085 302.251 280.712C302.251 280.887 302.251 281.068 302.251 281.249C302.23 282.504 302.71 283.716 303.585 284.62C304.46 285.525 305.66 286.049 306.922 286.078C306.001 285.722 305.211 285.097 304.657 284.284C304.103 283.471 303.811 282.509 303.821 281.527V281.527Z" fill="black"/>
<path id="Vector_116" d="M295.833 274.107C296.208 273.824 296.204 273.191 295.823 272.693C295.442 272.194 294.829 272.02 294.454 272.303C294.078 272.587 294.083 273.22 294.464 273.718C294.844 274.216 295.457 274.391 295.833 274.107Z" fill="#FBBEBE"/>
</g>
</g>
<defs>
<linearGradient id="paint0_linear" x1="499.715" y1="368.9" x2="499.715" y2="257.495" gradientUnits="userSpaceOnUse">
<stop stop-color="#808080" stop-opacity="0.25"/>
<stop offset="0.54" stop-color="#808080" stop-opacity="0.12"/>
<stop offset="1" stop-color="#808080" stop-opacity="0.1"/>
</linearGradient>
<linearGradient id="paint1_linear" x1="40656.9" y1="43388.5" x2="40656.9" y2="36795.5" gradientUnits="userSpaceOnUse">
<stop stop-color="#808080" stop-opacity="0.25"/>
<stop offset="0.54" stop-color="#808080" stop-opacity="0.12"/>
<stop offset="1" stop-color="#808080" stop-opacity="0.1"/>
</linearGradient>
</defs>
</svg>
